%TF.GenerationSoftware,KiCad,Pcbnew,(6.0.7-1)-1*%
%TF.CreationDate,2022-10-02T14:30:11-04:00*%
%TF.ProjectId,Macro_Keyboard_V1.1,4d616372-6f5f-44b6-9579-626f6172645f,1.1*%
%TF.SameCoordinates,Original*%
%TF.FileFunction,Copper,L2,Bot*%
%TF.FilePolarity,Positive*%
%FSLAX46Y46*%
G04 Gerber Fmt 4.6, Leading zero omitted, Abs format (unit mm)*
G04 Created by KiCad (PCBNEW (6.0.7-1)-1) date 2022-10-02 14:30:11*
%MOMM*%
%LPD*%
G01*
G04 APERTURE LIST*
G04 Aperture macros list*
%AMRoundRect*
0 Rectangle with rounded corners*
0 $1 Rounding radius*
0 $2 $3 $4 $5 $6 $7 $8 $9 X,Y pos of 4 corners*
0 Add a 4 corners polygon primitive as box body*
4,1,4,$2,$3,$4,$5,$6,$7,$8,$9,$2,$3,0*
0 Add four circle primitives for the rounded corners*
1,1,$1+$1,$2,$3*
1,1,$1+$1,$4,$5*
1,1,$1+$1,$6,$7*
1,1,$1+$1,$8,$9*
0 Add four rect primitives between the rounded corners*
20,1,$1+$1,$2,$3,$4,$5,0*
20,1,$1+$1,$4,$5,$6,$7,0*
20,1,$1+$1,$6,$7,$8,$9,0*
20,1,$1+$1,$8,$9,$2,$3,0*%
G04 Aperture macros list end*
%TA.AperFunction,SMDPad,CuDef*%
%ADD10R,1.200000X0.900000*%
%TD*%
%TA.AperFunction,SMDPad,CuDef*%
%ADD11R,0.900000X1.200000*%
%TD*%
%TA.AperFunction,ComponentPad*%
%ADD12C,2.200000*%
%TD*%
%TA.AperFunction,ComponentPad*%
%ADD13C,1.690600*%
%TD*%
%TA.AperFunction,ComponentPad*%
%ADD14C,2.000000*%
%TD*%
%TA.AperFunction,ComponentPad*%
%ADD15C,1.308000*%
%TD*%
%TA.AperFunction,ComponentPad*%
%ADD16C,2.100000*%
%TD*%
%TA.AperFunction,SMDPad,CuDef*%
%ADD17RoundRect,0.250000X-0.400000X-0.625000X0.400000X-0.625000X0.400000X0.625000X-0.400000X0.625000X0*%
%TD*%
%TA.AperFunction,ComponentPad*%
%ADD18C,1.422400*%
%TD*%
%TA.AperFunction,ComponentPad*%
%ADD19R,1.270000X1.270000*%
%TD*%
%TA.AperFunction,SMDPad,CuDef*%
%ADD20RoundRect,0.753563X1.278437X-0.753562X1.278437X0.753562X-1.278437X0.753562X-1.278437X-0.753562X0*%
%TD*%
%TA.AperFunction,Conductor*%
%ADD21C,0.250000*%
%TD*%
%TA.AperFunction,Conductor*%
%ADD22C,1.000000*%
%TD*%
G04 APERTURE END LIST*
D10*
%TO.P,D3,1,K*%
%TO.N,ROW1*%
X116840000Y-44830000D03*
%TO.P,D3,2,A*%
%TO.N,Net-(D3-Pad2)*%
X116840000Y-41530000D03*
%TD*%
D11*
%TO.P,D10,1,K*%
%TO.N,ROW4*%
X52450000Y-71120000D03*
%TO.P,D10,2,A*%
%TO.N,Net-(D10-Pad2)*%
X49150000Y-71120000D03*
%TD*%
D10*
%TO.P,D1,1,K*%
%TO.N,ROW1*%
X76200000Y-44830000D03*
%TO.P,D1,2,A*%
%TO.N,Net-(D1-Pad2)*%
X76200000Y-41530000D03*
%TD*%
%TO.P,D2,1,K*%
%TO.N,ROW1*%
X96520000Y-44830000D03*
%TO.P,D2,2,A*%
%TO.N,Net-(D2-Pad2)*%
X96520000Y-41530000D03*
%TD*%
%TO.P,D8,1,K*%
%TO.N,ROW3*%
X96520000Y-85470000D03*
%TO.P,D8,2,A*%
%TO.N,Net-(D8-Pad2)*%
X96520000Y-82170000D03*
%TD*%
%TO.P,D5,1,K*%
%TO.N,ROW2*%
X96520000Y-65150000D03*
%TO.P,D5,2,A*%
%TO.N,Net-(D5-Pad2)*%
X96520000Y-61850000D03*
%TD*%
%TO.P,D6,1,K*%
%TO.N,ROW2*%
X116840000Y-65150000D03*
%TO.P,D6,2,A*%
%TO.N,Net-(D6-Pad2)*%
X116840000Y-61850000D03*
%TD*%
%TO.P,D7,1,K*%
%TO.N,ROW3*%
X76200000Y-85470000D03*
%TO.P,D7,2,A*%
%TO.N,Net-(D7-Pad2)*%
X76200000Y-82170000D03*
%TD*%
%TO.P,D4,1,K*%
%TO.N,ROW2*%
X76200000Y-65150000D03*
%TO.P,D4,2,A*%
%TO.N,Net-(D4-Pad2)*%
X76200000Y-61850000D03*
%TD*%
D11*
%TO.P,D12,1,K*%
%TO.N,ROW4*%
X52450000Y-40640000D03*
%TO.P,D12,2,A*%
%TO.N,Net-(D12-Pad2)*%
X49150000Y-40640000D03*
%TD*%
%TO.P,D11,1,K*%
%TO.N,ROW4*%
X52450000Y-55880000D03*
%TO.P,D11,2,A*%
%TO.N,Net-(D11-Pad2)*%
X49150000Y-55880000D03*
%TD*%
D10*
%TO.P,D9,1,K*%
%TO.N,ROW3*%
X116840000Y-85470000D03*
%TO.P,D9,2,A*%
%TO.N,Net-(D9-Pad2)*%
X116840000Y-82170000D03*
%TD*%
D12*
%TO.P,SW7,1,1*%
%TO.N,COL1*%
X77470000Y-78740000D03*
%TO.P,SW7,2,2*%
%TO.N,Net-(D7-Pad2)*%
X71120000Y-81280000D03*
D13*
%TO.P,SW7,3,3*%
%TO.N,Net-(R1-Pad2)*%
X74930000Y-71120000D03*
%TO.P,SW7,4,4*%
%TO.N,LED_ROW3*%
X72390000Y-71120000D03*
%TD*%
D12*
%TO.P,SW8,1,1*%
%TO.N,COL2*%
X97790000Y-78740000D03*
%TO.P,SW8,2,2*%
%TO.N,Net-(D8-Pad2)*%
X91440000Y-81280000D03*
D13*
%TO.P,SW8,3,3*%
%TO.N,Net-(R2-Pad2)*%
X95250000Y-71120000D03*
%TO.P,SW8,4,4*%
%TO.N,LED_ROW3*%
X92710000Y-71120000D03*
%TD*%
D12*
%TO.P,SW2,1,1*%
%TO.N,COL2*%
X97790000Y-38100000D03*
%TO.P,SW2,2,2*%
%TO.N,Net-(D2-Pad2)*%
X91440000Y-40640000D03*
D13*
%TO.P,SW2,3,3*%
%TO.N,Net-(R2-Pad2)*%
X95250000Y-30480000D03*
%TO.P,SW2,4,4*%
%TO.N,LED_ROW1*%
X92710000Y-30480000D03*
%TD*%
D12*
%TO.P,SW6,1,1*%
%TO.N,COL3*%
X118110000Y-58420000D03*
%TO.P,SW6,2,2*%
%TO.N,Net-(D6-Pad2)*%
X111760000Y-60960000D03*
D13*
%TO.P,SW6,3,3*%
%TO.N,Net-(R3-Pad2)*%
X115570000Y-50800000D03*
%TO.P,SW6,4,4*%
%TO.N,LED_ROW2*%
X113030000Y-50800000D03*
%TD*%
D14*
%TO.P,SW11,1,1*%
%TO.N,Net-(D11-Pad2)*%
X54050000Y-59218000D03*
X47550000Y-59218000D03*
%TO.P,SW11,2,2*%
%TO.N,COL2*%
X54050000Y-63718000D03*
X47550000Y-63718000D03*
%TD*%
D12*
%TO.P,SW4,1,1*%
%TO.N,COL1*%
X77470000Y-58420000D03*
%TO.P,SW4,2,2*%
%TO.N,Net-(D4-Pad2)*%
X71120000Y-60960000D03*
D13*
%TO.P,SW4,3,3*%
%TO.N,Net-(R1-Pad2)*%
X74930000Y-50800000D03*
%TO.P,SW4,4,4*%
%TO.N,LED_ROW2*%
X72390000Y-50800000D03*
%TD*%
D12*
%TO.P,SW9,1,1*%
%TO.N,COL3*%
X118110000Y-78740000D03*
%TO.P,SW9,2,2*%
%TO.N,Net-(D9-Pad2)*%
X111760000Y-81280000D03*
D13*
%TO.P,SW9,3,3*%
%TO.N,Net-(R3-Pad2)*%
X115570000Y-71120000D03*
%TO.P,SW9,4,4*%
%TO.N,LED_ROW3*%
X113030000Y-71120000D03*
%TD*%
D12*
%TO.P,SW1,1,1*%
%TO.N,COL1*%
X77470000Y-38100000D03*
%TO.P,SW1,2,2*%
%TO.N,Net-(D1-Pad2)*%
X71120000Y-40640000D03*
D13*
%TO.P,SW1,3,3*%
%TO.N,Net-(R1-Pad2)*%
X74930000Y-30480000D03*
%TO.P,SW1,4,4*%
%TO.N,LED_ROW1*%
X72390000Y-30480000D03*
%TD*%
D12*
%TO.P,SW5,1,1*%
%TO.N,COL2*%
X97790000Y-58420000D03*
%TO.P,SW5,2,2*%
%TO.N,Net-(D5-Pad2)*%
X91440000Y-60960000D03*
D13*
%TO.P,SW5,3,3*%
%TO.N,Net-(R2-Pad2)*%
X95250000Y-50800000D03*
%TO.P,SW5,4,4*%
%TO.N,LED_ROW2*%
X92710000Y-50800000D03*
%TD*%
D14*
%TO.P,SW10,1,1*%
%TO.N,Net-(D10-Pad2)*%
X47550000Y-74458000D03*
X54050000Y-74458000D03*
%TO.P,SW10,2,2*%
%TO.N,COL1*%
X54050000Y-78958000D03*
X47550000Y-78958000D03*
%TD*%
D12*
%TO.P,SW3,1,1*%
%TO.N,COL3*%
X118110000Y-38100000D03*
%TO.P,SW3,2,2*%
%TO.N,Net-(D3-Pad2)*%
X111760000Y-40640000D03*
D13*
%TO.P,SW3,3,3*%
%TO.N,Net-(R3-Pad2)*%
X115570000Y-30480000D03*
%TO.P,SW3,4,4*%
%TO.N,LED_ROW1*%
X113030000Y-30480000D03*
%TD*%
D14*
%TO.P,SW12,1,1*%
%TO.N,Net-(D12-Pad2)*%
X54050000Y-43978000D03*
X47550000Y-43978000D03*
%TO.P,SW12,2,2*%
%TO.N,COL3*%
X47550000Y-48478000D03*
X54050000Y-48478000D03*
%TD*%
D15*
%TO.P,SW13,1,A*%
%TO.N,SPDT1*%
X64548000Y-24892000D03*
%TO.P,SW13,2,B*%
%TO.N,GND*%
X66548000Y-24892000D03*
%TO.P,SW13,3,C*%
%TO.N,SPDT2*%
X68548000Y-24892000D03*
D16*
%TO.P,SW13,M1*%
%TO.N,N/C*%
X62398000Y-24892000D03*
%TO.P,SW13,M2*%
X70698000Y-24892000D03*
%TD*%
D17*
%TO.P,R2,1*%
%TO.N,LED_COL2*%
X85318000Y-30480000D03*
%TO.P,R2,2*%
%TO.N,Net-(R2-Pad2)*%
X88418000Y-30480000D03*
%TD*%
D18*
%TO.P,U1,1,VBAT*%
%TO.N,+BATT*%
X43180000Y-26733638D03*
D19*
%TO.P,U1,2,GND*%
%TO.N,GND*%
X43180000Y-29273638D03*
D18*
%TO.P,U1,3,5V*%
%TO.N,/VUSB*%
X43180000Y-31813638D03*
%TO.P,U1,4,3V3*%
%TO.N,unconnected-(U1-Pad4)*%
X43180000Y-34353638D03*
%TO.P,U1,5,IO1*%
%TO.N,SPDT1*%
X43180000Y-36893638D03*
%TO.P,U1,6,IO2*%
%TO.N,SPDT2*%
X43180000Y-39433638D03*
%TO.P,U1,7,IO3*%
%TO.N,COL3*%
X43180000Y-41973638D03*
%TO.P,U1,8,IO4*%
%TO.N,COL2*%
X43180000Y-44513638D03*
%TO.P,U1,9,IO5*%
%TO.N,COL1*%
X43180000Y-47053638D03*
%TO.P,U1,10,IO21*%
%TO.N,/VUSB*%
X43180000Y-49593638D03*
%TO.P,U1,11,IO0*%
%TO.N,unconnected-(U1-Pad11)*%
X43180000Y-52133638D03*
%TO.P,U1,12,RX*%
%TO.N,LED_ROW3*%
X58420000Y-54673638D03*
%TO.P,U1,13,TX*%
%TO.N,LED_ROW2*%
X58420000Y-52133638D03*
D19*
%TO.P,U1,14,GND*%
%TO.N,unconnected-(U1-Pad14)*%
X58420000Y-49593638D03*
D18*
%TO.P,U1,15,RST*%
%TO.N,unconnected-(U1-Pad15)*%
X58420000Y-47053638D03*
%TO.P,U1,16,IO6*%
%TO.N,ROW4*%
X58420000Y-44513638D03*
%TO.P,U1,17,IO7*%
%TO.N,ROW3*%
X58420000Y-41973638D03*
%TO.P,U1,18,IO8*%
%TO.N,ROW2*%
X58420000Y-39433638D03*
%TO.P,U1,19,IO9*%
%TO.N,ROW1*%
X58420000Y-36893638D03*
%TO.P,U1,20,IO34*%
%TO.N,LED_ROW1*%
X58420000Y-34353638D03*
%TO.P,U1,21,IO36*%
%TO.N,LED_COL1*%
X58420000Y-31813638D03*
%TO.P,U1,22,IO37*%
%TO.N,LED_COL2*%
X58420000Y-29273638D03*
%TO.P,U1,23,IO35*%
%TO.N,LED_COL3*%
X58420000Y-26733638D03*
%TD*%
D20*
%TO.P,-,1*%
%TO.N,GND*%
X40640000Y-72627125D03*
%TD*%
%TO.P,+,1*%
%TO.N,+BATT*%
X40640000Y-66023125D03*
%TD*%
D17*
%TO.P,R3,1*%
%TO.N,LED_COL3*%
X105638000Y-30214000D03*
%TO.P,R3,2*%
%TO.N,Net-(R3-Pad2)*%
X108738000Y-30214000D03*
%TD*%
%TO.P,R1,1*%
%TO.N,LED_COL1*%
X63474000Y-32004000D03*
%TO.P,R1,2*%
%TO.N,Net-(R1-Pad2)*%
X66574000Y-32004000D03*
%TD*%
D21*
%TO.N,/VUSB*%
X43180000Y-31813638D02*
X41148000Y-33845638D01*
X41148000Y-33845638D02*
X41148000Y-47561638D01*
X41148000Y-47561638D02*
X43180000Y-49593638D01*
%TO.N,ROW1*%
X70738000Y-44830000D02*
X76200000Y-44830000D01*
X76200000Y-44830000D02*
X96520000Y-44830000D01*
X96520000Y-44830000D02*
X116840000Y-44830000D01*
X62801638Y-36893638D02*
X70738000Y-44830000D01*
X58420000Y-36893638D02*
X62801638Y-36893638D01*
%TO.N,ROW2*%
X96520000Y-65150000D02*
X116840000Y-65150000D01*
X62801638Y-39433638D02*
X65532000Y-42164000D01*
X69214000Y-65150000D02*
X76200000Y-65150000D01*
X58420000Y-39433638D02*
X62801638Y-39433638D01*
X65532000Y-61468000D02*
X69214000Y-65150000D01*
X65532000Y-42164000D02*
X65532000Y-61468000D01*
X76200000Y-65150000D02*
X96520000Y-65150000D01*
%TO.N,ROW3*%
X116840000Y-85470000D02*
X96520000Y-85470000D01*
X72770000Y-85470000D02*
X76200000Y-85470000D01*
X62801638Y-41973638D02*
X63500000Y-42672000D01*
X63500000Y-76200000D02*
X72770000Y-85470000D01*
X96520000Y-85470000D02*
X76200000Y-85470000D01*
X58420000Y-41973638D02*
X62801638Y-41973638D01*
X63500000Y-42672000D02*
X63500000Y-76200000D01*
%TO.N,ROW4*%
X56483181Y-51846819D02*
X56483181Y-67086819D01*
X54546362Y-40640000D02*
X56483181Y-42576819D01*
X56483181Y-42576819D02*
X56483181Y-51846819D01*
X52450000Y-40640000D02*
X54546362Y-40640000D01*
X56483181Y-67086819D02*
X52450000Y-71120000D01*
X56483181Y-51846819D02*
X52450000Y-55880000D01*
X56483181Y-42576819D02*
X58420000Y-44513638D01*
%TO.N,Net-(D1-Pad2)*%
X71120000Y-40640000D02*
X75310000Y-40640000D01*
X75310000Y-40640000D02*
X76200000Y-41530000D01*
%TO.N,Net-(D2-Pad2)*%
X91440000Y-40640000D02*
X95630000Y-40640000D01*
X95630000Y-40640000D02*
X96520000Y-41530000D01*
D22*
%TO.N,GND*%
X43180000Y-29273638D02*
X39624000Y-32829638D01*
X44704000Y-64516000D02*
X44704000Y-68563125D01*
X39624000Y-32829638D02*
X39624000Y-59436000D01*
X39624000Y-59436000D02*
X44704000Y-64516000D01*
X44704000Y-68563125D02*
X40640000Y-72627125D01*
D21*
%TO.N,Net-(D3-Pad2)*%
X115950000Y-40640000D02*
X116840000Y-41530000D01*
X111760000Y-40640000D02*
X115950000Y-40640000D01*
%TO.N,SPDT1*%
X58338510Y-24731509D02*
X55342129Y-24731509D01*
X64548000Y-24892000D02*
X64548000Y-25816895D01*
X60174001Y-26567000D02*
X58338510Y-24731509D01*
X64548000Y-25816895D02*
X63797895Y-26567000D01*
X55342129Y-24731509D02*
X43180000Y-36893638D01*
X63797895Y-26567000D02*
X60174001Y-26567000D01*
%TO.N,Net-(D4-Pad2)*%
X71120000Y-60960000D02*
X75310000Y-60960000D01*
X75310000Y-60960000D02*
X76200000Y-61850000D01*
%TO.N,Net-(D5-Pad2)*%
X91440000Y-60960000D02*
X95630000Y-60960000D01*
X95630000Y-60960000D02*
X96520000Y-61850000D01*
%TO.N,Net-(D6-Pad2)*%
X111760000Y-60960000D02*
X115950000Y-60960000D01*
X115950000Y-60960000D02*
X116840000Y-61850000D01*
%TO.N,Net-(D7-Pad2)*%
X75310000Y-81280000D02*
X76200000Y-82170000D01*
X71120000Y-81280000D02*
X75310000Y-81280000D01*
%TO.N,Net-(D8-Pad2)*%
X91440000Y-81280000D02*
X95630000Y-81280000D01*
X95630000Y-81280000D02*
X96520000Y-82170000D01*
%TO.N,Net-(D9-Pad2)*%
X115950000Y-81280000D02*
X116840000Y-82170000D01*
X111760000Y-81280000D02*
X115950000Y-81280000D01*
%TO.N,Net-(D10-Pad2)*%
X54050000Y-74458000D02*
X47550000Y-74458000D01*
X47550000Y-74458000D02*
X47550000Y-72720000D01*
X47550000Y-72720000D02*
X49150000Y-71120000D01*
%TO.N,Net-(D11-Pad2)*%
X47550000Y-59218000D02*
X47550000Y-57480000D01*
X54050000Y-59218000D02*
X47550000Y-59218000D01*
X47550000Y-57480000D02*
X49150000Y-55880000D01*
%TO.N,Net-(D12-Pad2)*%
X47550000Y-43978000D02*
X47550000Y-42240000D01*
X47550000Y-42240000D02*
X49150000Y-40640000D01*
X54050000Y-43978000D02*
X47550000Y-43978000D01*
D22*
%TO.N,+BATT*%
X40640000Y-66023125D02*
X37608000Y-62991125D01*
X42354362Y-26733638D02*
X43180000Y-26733638D01*
X37608000Y-62991125D02*
X37608000Y-31480000D01*
X37608000Y-31480000D02*
X42354362Y-26733638D01*
D21*
%TO.N,LED_ROW3*%
X74422000Y-73152000D02*
X90678000Y-73152000D01*
X92710000Y-71120000D02*
X94794956Y-73204956D01*
X72390000Y-71120000D02*
X74422000Y-73152000D01*
X94794956Y-73204956D02*
X110945044Y-73204956D01*
X90678000Y-73152000D02*
X92710000Y-71120000D01*
X110945044Y-73204956D02*
X113030000Y-71120000D01*
%TO.N,LED_ROW2*%
X110998000Y-52832000D02*
X113030000Y-50800000D01*
X94742000Y-52832000D02*
X110998000Y-52832000D01*
X90678000Y-52832000D02*
X92710000Y-50800000D01*
X74422000Y-52832000D02*
X90678000Y-52832000D01*
X72390000Y-50800000D02*
X74422000Y-52832000D01*
X92710000Y-50800000D02*
X94742000Y-52832000D01*
%TO.N,LED_ROW1*%
X58420000Y-34353638D02*
X67246362Y-34353638D01*
X94742000Y-32512000D02*
X110998000Y-32512000D01*
X110998000Y-32512000D02*
X113030000Y-30480000D01*
X71120000Y-30480000D02*
X72390000Y-30480000D01*
X74474956Y-32564956D02*
X90625044Y-32564956D01*
X90625044Y-32564956D02*
X92710000Y-30480000D01*
X92710000Y-30480000D02*
X94742000Y-32512000D01*
X72390000Y-30480000D02*
X74474956Y-32564956D01*
X67246362Y-34353638D02*
X71120000Y-30480000D01*
%TO.N,LED_COL1*%
X63283638Y-31813638D02*
X63474000Y-32004000D01*
X58420000Y-31813638D02*
X63283638Y-31813638D01*
%TO.N,LED_COL2*%
X68243702Y-29273638D02*
X69257640Y-28259700D01*
X69257640Y-28259700D02*
X83097700Y-28259700D01*
X83097700Y-28259700D02*
X85318000Y-30480000D01*
X58420000Y-29273638D02*
X68243702Y-29273638D01*
%TO.N,LED_COL3*%
X58420000Y-26733638D02*
X60210000Y-28523638D01*
X60210000Y-28523638D02*
X67564000Y-28523638D01*
X102348000Y-26924000D02*
X105638000Y-30214000D01*
X69088000Y-26999638D02*
X69088000Y-26924000D01*
X67564000Y-28523638D02*
X69088000Y-26999638D01*
X69088000Y-26924000D02*
X102348000Y-26924000D01*
%TO.N,Net-(R1-Pad2)*%
X74930000Y-29972000D02*
X74930000Y-30480000D01*
X73967700Y-29009700D02*
X74930000Y-29972000D01*
X69568300Y-29009700D02*
X73967700Y-29009700D01*
X66574000Y-32004000D02*
X69568300Y-29009700D01*
%TO.N,Net-(R2-Pad2)*%
X91440000Y-28448000D02*
X93218000Y-28448000D01*
X89408000Y-30480000D02*
X91440000Y-28448000D01*
X93218000Y-28448000D02*
X95250000Y-30480000D01*
X88418000Y-30480000D02*
X89408000Y-30480000D01*
%TO.N,Net-(R3-Pad2)*%
X108738000Y-30214000D02*
X110504000Y-28448000D01*
X113538000Y-28448000D02*
X115570000Y-30480000D01*
X110504000Y-28448000D02*
X113538000Y-28448000D01*
%TD*%
M02*
