%TF.GenerationSoftware,KiCad,Pcbnew,(6.0.7-1)-1*%
%TF.CreationDate,2022-10-02T14:30:19-04:00*%
%TF.ProjectId,Macro_Keyboard_V1.1,4d616372-6f5f-44b6-9579-626f6172645f,1.1*%
%TF.SameCoordinates,Original*%
%TF.FileFunction,Drillmap*%
%TF.FilePolarity,Positive*%
%FSLAX45Y45*%
G04 Gerber Fmt 4.5, Leading zero omitted, Abs format (unit mm)*
G04 Created by KiCad (PCBNEW (6.0.7-1)-1) date 2022-10-02 14:30:19*
%MOMM*%
%LPD*%
G01*
G04 APERTURE LIST*
%ADD10C,0.100000*%
%ADD11C,0.200000*%
%ADD12C,0.080000*%
%ADD13C,0.090000*%
%ADD14C,0.091440*%
%ADD15C,0.099060*%
%ADD16C,0.110000*%
%ADD17C,0.140000*%
%ADD18C,0.150000*%
G04 APERTURE END LIST*
D10*
X3606800Y-2235200D02*
X12750800Y-2235200D01*
X12750800Y-2235200D02*
X12750800Y-8940800D01*
X12750800Y-8940800D02*
X3606800Y-8940800D01*
X3606800Y-8940800D02*
X3606800Y-2235200D01*
D11*
D12*
X6414800Y-2449200D02*
X6494800Y-2529200D01*
X6494800Y-2449200D02*
X6414800Y-2529200D01*
X6614800Y-2449200D02*
X6694800Y-2529200D01*
X6694800Y-2449200D02*
X6614800Y-2529200D01*
X6814800Y-2449200D02*
X6894800Y-2529200D01*
X6894800Y-2449200D02*
X6814800Y-2529200D01*
D13*
X5887000Y-2673364D02*
G75*
G03*
X5887000Y-2673364I-45000J0D01*
G01*
X5887000Y-2927364D02*
G75*
G03*
X5887000Y-2927364I-45000J0D01*
G01*
X5887000Y-3181364D02*
G75*
G03*
X5887000Y-3181364I-45000J0D01*
G01*
X5887000Y-3435364D02*
G75*
G03*
X5887000Y-3435364I-45000J0D01*
G01*
X5887000Y-3689364D02*
G75*
G03*
X5887000Y-3689364I-45000J0D01*
G01*
X5887000Y-3943364D02*
G75*
G03*
X5887000Y-3943364I-45000J0D01*
G01*
X5887000Y-4197364D02*
G75*
G03*
X5887000Y-4197364I-45000J0D01*
G01*
X5887000Y-4451364D02*
G75*
G03*
X5887000Y-4451364I-45000J0D01*
G01*
X5887000Y-4705364D02*
G75*
G03*
X5887000Y-4705364I-45000J0D01*
G01*
X5887000Y-4959364D02*
G75*
G03*
X5887000Y-4959364I-45000J0D01*
G01*
X5887000Y-5213364D02*
G75*
G03*
X5887000Y-5213364I-45000J0D01*
G01*
X5887000Y-5467364D02*
G75*
G03*
X5887000Y-5467364I-45000J0D01*
G01*
D14*
X4318000Y-2627644D02*
X4318000Y-2719084D01*
X4272280Y-2673364D02*
X4363720Y-2673364D01*
X4318000Y-2881644D02*
X4318000Y-2973084D01*
X4272280Y-2927364D02*
X4363720Y-2927364D01*
X4318000Y-3135644D02*
X4318000Y-3227084D01*
X4272280Y-3181364D02*
X4363720Y-3181364D01*
X4318000Y-3389644D02*
X4318000Y-3481084D01*
X4272280Y-3435364D02*
X4363720Y-3435364D01*
X4318000Y-3643644D02*
X4318000Y-3735084D01*
X4272280Y-3689364D02*
X4363720Y-3689364D01*
X4318000Y-3897644D02*
X4318000Y-3989084D01*
X4272280Y-3943364D02*
X4363720Y-3943364D01*
X4318000Y-4151644D02*
X4318000Y-4243084D01*
X4272280Y-4197364D02*
X4363720Y-4197364D01*
X4318000Y-4405644D02*
X4318000Y-4497084D01*
X4272280Y-4451364D02*
X4363720Y-4451364D01*
X4318000Y-4659644D02*
X4318000Y-4751084D01*
X4272280Y-4705364D02*
X4363720Y-4705364D01*
X4318000Y-4913644D02*
X4318000Y-5005084D01*
X4272280Y-4959364D02*
X4363720Y-4959364D01*
X4318000Y-5167644D02*
X4318000Y-5259084D01*
X4272280Y-5213364D02*
X4363720Y-5213364D01*
D15*
X7274023Y-3083023D02*
X7274023Y-3012977D01*
X7203977Y-3012977D01*
X7203977Y-3083023D01*
X7274023Y-3083023D01*
X7274023Y-5115023D02*
X7274023Y-5044977D01*
X7203977Y-5044977D01*
X7203977Y-5115023D01*
X7274023Y-5115023D01*
X7274023Y-7147023D02*
X7274023Y-7076977D01*
X7203977Y-7076977D01*
X7203977Y-7147023D01*
X7274023Y-7147023D01*
X7528023Y-3083023D02*
X7528023Y-3012977D01*
X7457977Y-3012977D01*
X7457977Y-3083023D01*
X7528023Y-3083023D01*
X7528023Y-5115023D02*
X7528023Y-5044977D01*
X7457977Y-5044977D01*
X7457977Y-5115023D01*
X7528023Y-5115023D01*
X7528023Y-7147023D02*
X7528023Y-7076977D01*
X7457977Y-7076977D01*
X7457977Y-7147023D01*
X7528023Y-7147023D01*
X9306023Y-3083023D02*
X9306023Y-3012977D01*
X9235977Y-3012977D01*
X9235977Y-3083023D01*
X9306023Y-3083023D01*
X9306023Y-5115023D02*
X9306023Y-5044977D01*
X9235977Y-5044977D01*
X9235977Y-5115023D01*
X9306023Y-5115023D01*
X9306023Y-7147023D02*
X9306023Y-7076977D01*
X9235977Y-7076977D01*
X9235977Y-7147023D01*
X9306023Y-7147023D01*
X9560023Y-3083023D02*
X9560023Y-3012977D01*
X9489977Y-3012977D01*
X9489977Y-3083023D01*
X9560023Y-3083023D01*
X9560023Y-5115023D02*
X9560023Y-5044977D01*
X9489977Y-5044977D01*
X9489977Y-5115023D01*
X9560023Y-5115023D01*
X9560023Y-7147023D02*
X9560023Y-7076977D01*
X9489977Y-7076977D01*
X9489977Y-7147023D01*
X9560023Y-7147023D01*
X11338023Y-3083023D02*
X11338023Y-3012977D01*
X11267977Y-3012977D01*
X11267977Y-3083023D01*
X11338023Y-3083023D01*
X11338023Y-5115023D02*
X11338023Y-5044977D01*
X11267977Y-5044977D01*
X11267977Y-5115023D01*
X11338023Y-5115023D01*
X11338023Y-7147023D02*
X11338023Y-7076977D01*
X11267977Y-7076977D01*
X11267977Y-7147023D01*
X11338023Y-7147023D01*
X11592023Y-3083023D02*
X11592023Y-3012977D01*
X11521977Y-3012977D01*
X11521977Y-3083023D01*
X11592023Y-3083023D01*
X11592023Y-5115023D02*
X11592023Y-5044977D01*
X11521977Y-5044977D01*
X11521977Y-5115023D01*
X11592023Y-5115023D01*
X11592023Y-7147023D02*
X11592023Y-7076977D01*
X11521977Y-7076977D01*
X11521977Y-7147023D01*
X11592023Y-7147023D01*
D16*
X4755000Y-4452800D02*
X4810000Y-4397800D01*
X4755000Y-4342800D01*
X4700000Y-4397800D01*
X4755000Y-4452800D01*
X4755000Y-4902800D02*
X4810000Y-4847800D01*
X4755000Y-4792800D01*
X4700000Y-4847800D01*
X4755000Y-4902800D01*
X4755000Y-5976800D02*
X4810000Y-5921800D01*
X4755000Y-5866800D01*
X4700000Y-5921800D01*
X4755000Y-5976800D01*
X4755000Y-6426800D02*
X4810000Y-6371800D01*
X4755000Y-6316800D01*
X4700000Y-6371800D01*
X4755000Y-6426800D01*
X4755000Y-7500800D02*
X4810000Y-7445800D01*
X4755000Y-7390800D01*
X4700000Y-7445800D01*
X4755000Y-7500800D01*
X4755000Y-7950800D02*
X4810000Y-7895800D01*
X4755000Y-7840800D01*
X4700000Y-7895800D01*
X4755000Y-7950800D01*
X5405000Y-4452800D02*
X5460000Y-4397800D01*
X5405000Y-4342800D01*
X5350000Y-4397800D01*
X5405000Y-4452800D01*
X5405000Y-4902800D02*
X5460000Y-4847800D01*
X5405000Y-4792800D01*
X5350000Y-4847800D01*
X5405000Y-4902800D01*
X5405000Y-5976800D02*
X5460000Y-5921800D01*
X5405000Y-5866800D01*
X5350000Y-5921800D01*
X5405000Y-5976800D01*
X5405000Y-6426800D02*
X5460000Y-6371800D01*
X5405000Y-6316800D01*
X5350000Y-6371800D01*
X5405000Y-6426800D01*
X5405000Y-7500800D02*
X5460000Y-7445800D01*
X5405000Y-7390800D01*
X5350000Y-7445800D01*
X5405000Y-7500800D01*
X5405000Y-7950800D02*
X5460000Y-7895800D01*
X5405000Y-7840800D01*
X5350000Y-7895800D01*
X5405000Y-7950800D01*
D17*
X6169800Y-2419200D02*
X6309800Y-2559200D01*
X6309800Y-2419200D02*
X6169800Y-2559200D01*
X6309800Y-2489200D02*
G75*
G03*
X6309800Y-2489200I-70000J0D01*
G01*
X6999800Y-2419200D02*
X7139800Y-2559200D01*
X7139800Y-2419200D02*
X6999800Y-2559200D01*
X7139800Y-2489200D02*
G75*
G03*
X7139800Y-2489200I-70000J0D01*
G01*
D18*
X7037000Y-3989000D02*
X7187000Y-4139000D01*
X7187000Y-3989000D02*
X7037000Y-4139000D01*
X7112000Y-3989000D02*
X7112000Y-4139000D01*
X7037000Y-4064000D02*
X7187000Y-4064000D01*
X7037000Y-6021000D02*
X7187000Y-6171000D01*
X7187000Y-6021000D02*
X7037000Y-6171000D01*
X7112000Y-6021000D02*
X7112000Y-6171000D01*
X7037000Y-6096000D02*
X7187000Y-6096000D01*
X7037000Y-8053000D02*
X7187000Y-8203000D01*
X7187000Y-8053000D02*
X7037000Y-8203000D01*
X7112000Y-8053000D02*
X7112000Y-8203000D01*
X7037000Y-8128000D02*
X7187000Y-8128000D01*
X7672000Y-3735000D02*
X7822000Y-3885000D01*
X7822000Y-3735000D02*
X7672000Y-3885000D01*
X7747000Y-3735000D02*
X7747000Y-3885000D01*
X7672000Y-3810000D02*
X7822000Y-3810000D01*
X7672000Y-5767000D02*
X7822000Y-5917000D01*
X7822000Y-5767000D02*
X7672000Y-5917000D01*
X7747000Y-5767000D02*
X7747000Y-5917000D01*
X7672000Y-5842000D02*
X7822000Y-5842000D01*
X7672000Y-7799000D02*
X7822000Y-7949000D01*
X7822000Y-7799000D02*
X7672000Y-7949000D01*
X7747000Y-7799000D02*
X7747000Y-7949000D01*
X7672000Y-7874000D02*
X7822000Y-7874000D01*
X9069000Y-3989000D02*
X9219000Y-4139000D01*
X9219000Y-3989000D02*
X9069000Y-4139000D01*
X9144000Y-3989000D02*
X9144000Y-4139000D01*
X9069000Y-4064000D02*
X9219000Y-4064000D01*
X9069000Y-6021000D02*
X9219000Y-6171000D01*
X9219000Y-6021000D02*
X9069000Y-6171000D01*
X9144000Y-6021000D02*
X9144000Y-6171000D01*
X9069000Y-6096000D02*
X9219000Y-6096000D01*
X9069000Y-8053000D02*
X9219000Y-8203000D01*
X9219000Y-8053000D02*
X9069000Y-8203000D01*
X9144000Y-8053000D02*
X9144000Y-8203000D01*
X9069000Y-8128000D02*
X9219000Y-8128000D01*
X9704000Y-3735000D02*
X9854000Y-3885000D01*
X9854000Y-3735000D02*
X9704000Y-3885000D01*
X9779000Y-3735000D02*
X9779000Y-3885000D01*
X9704000Y-3810000D02*
X9854000Y-3810000D01*
X9704000Y-5767000D02*
X9854000Y-5917000D01*
X9854000Y-5767000D02*
X9704000Y-5917000D01*
X9779000Y-5767000D02*
X9779000Y-5917000D01*
X9704000Y-5842000D02*
X9854000Y-5842000D01*
X9704000Y-7799000D02*
X9854000Y-7949000D01*
X9854000Y-7799000D02*
X9704000Y-7949000D01*
X9779000Y-7799000D02*
X9779000Y-7949000D01*
X9704000Y-7874000D02*
X9854000Y-7874000D01*
X11101000Y-3989000D02*
X11251000Y-4139000D01*
X11251000Y-3989000D02*
X11101000Y-4139000D01*
X11176000Y-3989000D02*
X11176000Y-4139000D01*
X11101000Y-4064000D02*
X11251000Y-4064000D01*
X11101000Y-6021000D02*
X11251000Y-6171000D01*
X11251000Y-6021000D02*
X11101000Y-6171000D01*
X11176000Y-6021000D02*
X11176000Y-6171000D01*
X11101000Y-6096000D02*
X11251000Y-6096000D01*
X11101000Y-8053000D02*
X11251000Y-8203000D01*
X11251000Y-8053000D02*
X11101000Y-8203000D01*
X11176000Y-8053000D02*
X11176000Y-8203000D01*
X11101000Y-8128000D02*
X11251000Y-8128000D01*
X11736000Y-3735000D02*
X11886000Y-3885000D01*
X11886000Y-3735000D02*
X11736000Y-3885000D01*
X11811000Y-3735000D02*
X11811000Y-3885000D01*
X11736000Y-3810000D02*
X11886000Y-3810000D01*
X11736000Y-5767000D02*
X11886000Y-5917000D01*
X11886000Y-5767000D02*
X11736000Y-5917000D01*
X11811000Y-5767000D02*
X11811000Y-5917000D01*
X11736000Y-5842000D02*
X11886000Y-5842000D01*
X11736000Y-7799000D02*
X11886000Y-7949000D01*
X11886000Y-7799000D02*
X11736000Y-7949000D01*
X11811000Y-7799000D02*
X11811000Y-7949000D01*
X11736000Y-7874000D02*
X11886000Y-7874000D01*
D11*
X3859419Y-9256276D02*
X3859419Y-9056276D01*
X3907038Y-9056276D01*
X3935609Y-9065800D01*
X3954657Y-9084848D01*
X3964181Y-9103895D01*
X3973705Y-9141990D01*
X3973705Y-9170562D01*
X3964181Y-9208657D01*
X3954657Y-9227705D01*
X3935609Y-9246752D01*
X3907038Y-9256276D01*
X3859419Y-9256276D01*
X4059419Y-9256276D02*
X4059419Y-9122943D01*
X4059419Y-9161038D02*
X4068943Y-9141990D01*
X4078467Y-9132467D01*
X4097514Y-9122943D01*
X4116562Y-9122943D01*
X4183228Y-9256276D02*
X4183228Y-9122943D01*
X4183228Y-9056276D02*
X4173705Y-9065800D01*
X4183228Y-9075324D01*
X4192752Y-9065800D01*
X4183228Y-9056276D01*
X4183228Y-9075324D01*
X4307038Y-9256276D02*
X4287990Y-9246752D01*
X4278467Y-9227705D01*
X4278467Y-9056276D01*
X4411800Y-9256276D02*
X4392752Y-9246752D01*
X4383229Y-9227705D01*
X4383229Y-9056276D01*
X4640371Y-9256276D02*
X4640371Y-9056276D01*
X4707038Y-9199133D01*
X4773705Y-9056276D01*
X4773705Y-9256276D01*
X4954657Y-9256276D02*
X4954657Y-9151514D01*
X4945133Y-9132467D01*
X4926086Y-9122943D01*
X4887990Y-9122943D01*
X4868943Y-9132467D01*
X4954657Y-9246752D02*
X4935610Y-9256276D01*
X4887990Y-9256276D01*
X4868943Y-9246752D01*
X4859419Y-9227705D01*
X4859419Y-9208657D01*
X4868943Y-9189610D01*
X4887990Y-9180086D01*
X4935610Y-9180086D01*
X4954657Y-9170562D01*
X5049895Y-9122943D02*
X5049895Y-9322943D01*
X5049895Y-9132467D02*
X5068943Y-9122943D01*
X5107038Y-9122943D01*
X5126086Y-9132467D01*
X5135610Y-9141990D01*
X5145133Y-9161038D01*
X5145133Y-9218181D01*
X5135610Y-9237229D01*
X5126086Y-9246752D01*
X5107038Y-9256276D01*
X5068943Y-9256276D01*
X5049895Y-9246752D01*
X5230848Y-9237229D02*
X5240371Y-9246752D01*
X5230848Y-9256276D01*
X5221324Y-9246752D01*
X5230848Y-9237229D01*
X5230848Y-9256276D01*
X5230848Y-9132467D02*
X5240371Y-9141990D01*
X5230848Y-9151514D01*
X5221324Y-9141990D01*
X5230848Y-9132467D01*
X5230848Y-9151514D01*
D12*
X3521800Y-9545800D02*
X3601800Y-9625800D01*
X3601800Y-9545800D02*
X3521800Y-9625800D01*
D11*
X3897514Y-9476276D02*
X3916562Y-9476276D01*
X3935609Y-9485800D01*
X3945133Y-9495324D01*
X3954657Y-9514371D01*
X3964181Y-9552467D01*
X3964181Y-9600086D01*
X3954657Y-9638181D01*
X3945133Y-9657229D01*
X3935609Y-9666752D01*
X3916562Y-9676276D01*
X3897514Y-9676276D01*
X3878467Y-9666752D01*
X3868943Y-9657229D01*
X3859419Y-9638181D01*
X3849895Y-9600086D01*
X3849895Y-9552467D01*
X3859419Y-9514371D01*
X3868943Y-9495324D01*
X3878467Y-9485800D01*
X3897514Y-9476276D01*
X4049895Y-9657229D02*
X4059419Y-9666752D01*
X4049895Y-9676276D01*
X4040371Y-9666752D01*
X4049895Y-9657229D01*
X4049895Y-9676276D01*
X4173705Y-9561990D02*
X4154657Y-9552467D01*
X4145133Y-9542943D01*
X4135609Y-9523895D01*
X4135609Y-9514371D01*
X4145133Y-9495324D01*
X4154657Y-9485800D01*
X4173705Y-9476276D01*
X4211800Y-9476276D01*
X4230848Y-9485800D01*
X4240371Y-9495324D01*
X4249895Y-9514371D01*
X4249895Y-9523895D01*
X4240371Y-9542943D01*
X4230848Y-9552467D01*
X4211800Y-9561990D01*
X4173705Y-9561990D01*
X4154657Y-9571514D01*
X4145133Y-9581038D01*
X4135609Y-9600086D01*
X4135609Y-9638181D01*
X4145133Y-9657229D01*
X4154657Y-9666752D01*
X4173705Y-9676276D01*
X4211800Y-9676276D01*
X4230848Y-9666752D01*
X4240371Y-9657229D01*
X4249895Y-9638181D01*
X4249895Y-9600086D01*
X4240371Y-9581038D01*
X4230848Y-9571514D01*
X4211800Y-9561990D01*
X4373705Y-9476276D02*
X4392752Y-9476276D01*
X4411800Y-9485800D01*
X4421324Y-9495324D01*
X4430848Y-9514371D01*
X4440371Y-9552467D01*
X4440371Y-9600086D01*
X4430848Y-9638181D01*
X4421324Y-9657229D01*
X4411800Y-9666752D01*
X4392752Y-9676276D01*
X4373705Y-9676276D01*
X4354657Y-9666752D01*
X4345133Y-9657229D01*
X4335610Y-9638181D01*
X4326086Y-9600086D01*
X4326086Y-9552467D01*
X4335610Y-9514371D01*
X4345133Y-9495324D01*
X4354657Y-9485800D01*
X4373705Y-9476276D01*
X4564181Y-9476276D02*
X4583229Y-9476276D01*
X4602276Y-9485800D01*
X4611800Y-9495324D01*
X4621324Y-9514371D01*
X4630848Y-9552467D01*
X4630848Y-9600086D01*
X4621324Y-9638181D01*
X4611800Y-9657229D01*
X4602276Y-9666752D01*
X4583229Y-9676276D01*
X4564181Y-9676276D01*
X4545133Y-9666752D01*
X4535610Y-9657229D01*
X4526086Y-9638181D01*
X4516562Y-9600086D01*
X4516562Y-9552467D01*
X4526086Y-9514371D01*
X4535610Y-9495324D01*
X4545133Y-9485800D01*
X4564181Y-9476276D01*
X4716562Y-9676276D02*
X4716562Y-9542943D01*
X4716562Y-9561990D02*
X4726086Y-9552467D01*
X4745133Y-9542943D01*
X4773705Y-9542943D01*
X4792752Y-9552467D01*
X4802276Y-9571514D01*
X4802276Y-9676276D01*
X4802276Y-9571514D02*
X4811800Y-9552467D01*
X4830848Y-9542943D01*
X4859419Y-9542943D01*
X4878467Y-9552467D01*
X4887990Y-9571514D01*
X4887990Y-9676276D01*
X4983229Y-9676276D02*
X4983229Y-9542943D01*
X4983229Y-9561990D02*
X4992752Y-9552467D01*
X5011800Y-9542943D01*
X5040371Y-9542943D01*
X5059419Y-9552467D01*
X5068943Y-9571514D01*
X5068943Y-9676276D01*
X5068943Y-9571514D02*
X5078467Y-9552467D01*
X5097514Y-9542943D01*
X5126086Y-9542943D01*
X5145133Y-9552467D01*
X5154657Y-9571514D01*
X5154657Y-9676276D01*
X5545133Y-9466752D02*
X5373705Y-9723895D01*
X5802276Y-9476276D02*
X5821324Y-9476276D01*
X5840371Y-9485800D01*
X5849895Y-9495324D01*
X5859419Y-9514371D01*
X5868943Y-9552467D01*
X5868943Y-9600086D01*
X5859419Y-9638181D01*
X5849895Y-9657229D01*
X5840371Y-9666752D01*
X5821324Y-9676276D01*
X5802276Y-9676276D01*
X5783228Y-9666752D01*
X5773705Y-9657229D01*
X5764181Y-9638181D01*
X5754657Y-9600086D01*
X5754657Y-9552467D01*
X5764181Y-9514371D01*
X5773705Y-9495324D01*
X5783228Y-9485800D01*
X5802276Y-9476276D01*
X5954657Y-9657229D02*
X5964181Y-9666752D01*
X5954657Y-9676276D01*
X5945133Y-9666752D01*
X5954657Y-9657229D01*
X5954657Y-9676276D01*
X6087990Y-9476276D02*
X6107038Y-9476276D01*
X6126086Y-9485800D01*
X6135609Y-9495324D01*
X6145133Y-9514371D01*
X6154657Y-9552467D01*
X6154657Y-9600086D01*
X6145133Y-9638181D01*
X6135609Y-9657229D01*
X6126086Y-9666752D01*
X6107038Y-9676276D01*
X6087990Y-9676276D01*
X6068943Y-9666752D01*
X6059419Y-9657229D01*
X6049895Y-9638181D01*
X6040371Y-9600086D01*
X6040371Y-9552467D01*
X6049895Y-9514371D01*
X6059419Y-9495324D01*
X6068943Y-9485800D01*
X6087990Y-9476276D01*
X6221324Y-9476276D02*
X6345133Y-9476276D01*
X6278467Y-9552467D01*
X6307038Y-9552467D01*
X6326086Y-9561990D01*
X6335609Y-9571514D01*
X6345133Y-9590562D01*
X6345133Y-9638181D01*
X6335609Y-9657229D01*
X6326086Y-9666752D01*
X6307038Y-9676276D01*
X6249895Y-9676276D01*
X6230848Y-9666752D01*
X6221324Y-9657229D01*
X6535609Y-9676276D02*
X6421324Y-9676276D01*
X6478467Y-9676276D02*
X6478467Y-9476276D01*
X6459419Y-9504848D01*
X6440371Y-9523895D01*
X6421324Y-9533419D01*
X6716562Y-9476276D02*
X6621324Y-9476276D01*
X6611800Y-9571514D01*
X6621324Y-9561990D01*
X6640371Y-9552467D01*
X6687990Y-9552467D01*
X6707038Y-9561990D01*
X6716562Y-9571514D01*
X6726086Y-9590562D01*
X6726086Y-9638181D01*
X6716562Y-9657229D01*
X6707038Y-9666752D01*
X6687990Y-9676276D01*
X6640371Y-9676276D01*
X6621324Y-9666752D01*
X6611800Y-9657229D01*
X6802276Y-9476276D02*
X6802276Y-9514371D01*
X6878467Y-9476276D02*
X6878467Y-9514371D01*
X7173705Y-9752467D02*
X7164181Y-9742943D01*
X7145133Y-9714371D01*
X7135609Y-9695324D01*
X7126086Y-9666752D01*
X7116562Y-9619133D01*
X7116562Y-9581038D01*
X7126086Y-9533419D01*
X7135609Y-9504848D01*
X7145133Y-9485800D01*
X7164181Y-9457229D01*
X7173705Y-9447705D01*
X7230848Y-9476276D02*
X7354657Y-9476276D01*
X7287990Y-9552467D01*
X7316562Y-9552467D01*
X7335609Y-9561990D01*
X7345133Y-9571514D01*
X7354657Y-9590562D01*
X7354657Y-9638181D01*
X7345133Y-9657229D01*
X7335609Y-9666752D01*
X7316562Y-9676276D01*
X7259419Y-9676276D01*
X7240371Y-9666752D01*
X7230848Y-9657229D01*
X7592752Y-9676276D02*
X7592752Y-9476276D01*
X7678467Y-9676276D02*
X7678467Y-9571514D01*
X7668943Y-9552467D01*
X7649895Y-9542943D01*
X7621324Y-9542943D01*
X7602276Y-9552467D01*
X7592752Y-9561990D01*
X7802276Y-9676276D02*
X7783228Y-9666752D01*
X7773705Y-9657229D01*
X7764181Y-9638181D01*
X7764181Y-9581038D01*
X7773705Y-9561990D01*
X7783228Y-9552467D01*
X7802276Y-9542943D01*
X7830848Y-9542943D01*
X7849895Y-9552467D01*
X7859419Y-9561990D01*
X7868943Y-9581038D01*
X7868943Y-9638181D01*
X7859419Y-9657229D01*
X7849895Y-9666752D01*
X7830848Y-9676276D01*
X7802276Y-9676276D01*
X7983228Y-9676276D02*
X7964181Y-9666752D01*
X7954657Y-9647705D01*
X7954657Y-9476276D01*
X8135609Y-9666752D02*
X8116562Y-9676276D01*
X8078467Y-9676276D01*
X8059419Y-9666752D01*
X8049895Y-9647705D01*
X8049895Y-9571514D01*
X8059419Y-9552467D01*
X8078467Y-9542943D01*
X8116562Y-9542943D01*
X8135609Y-9552467D01*
X8145133Y-9571514D01*
X8145133Y-9590562D01*
X8049895Y-9609610D01*
X8221324Y-9666752D02*
X8240371Y-9676276D01*
X8278467Y-9676276D01*
X8297514Y-9666752D01*
X8307038Y-9647705D01*
X8307038Y-9638181D01*
X8297514Y-9619133D01*
X8278467Y-9609610D01*
X8249895Y-9609610D01*
X8230848Y-9600086D01*
X8221324Y-9581038D01*
X8221324Y-9571514D01*
X8230848Y-9552467D01*
X8249895Y-9542943D01*
X8278467Y-9542943D01*
X8297514Y-9552467D01*
X8373705Y-9752467D02*
X8383228Y-9742943D01*
X8402276Y-9714371D01*
X8411800Y-9695324D01*
X8421324Y-9666752D01*
X8430848Y-9619133D01*
X8430848Y-9581038D01*
X8421324Y-9533419D01*
X8411800Y-9504848D01*
X8402276Y-9485800D01*
X8383228Y-9457229D01*
X8373705Y-9447705D01*
D13*
X3601800Y-9849800D02*
G75*
G03*
X3601800Y-9849800I-45000J0D01*
G01*
D11*
X3897514Y-9740276D02*
X3916562Y-9740276D01*
X3935609Y-9749800D01*
X3945133Y-9759324D01*
X3954657Y-9778371D01*
X3964181Y-9816467D01*
X3964181Y-9864086D01*
X3954657Y-9902181D01*
X3945133Y-9921229D01*
X3935609Y-9930752D01*
X3916562Y-9940276D01*
X3897514Y-9940276D01*
X3878467Y-9930752D01*
X3868943Y-9921229D01*
X3859419Y-9902181D01*
X3849895Y-9864086D01*
X3849895Y-9816467D01*
X3859419Y-9778371D01*
X3868943Y-9759324D01*
X3878467Y-9749800D01*
X3897514Y-9740276D01*
X4049895Y-9921229D02*
X4059419Y-9930752D01*
X4049895Y-9940276D01*
X4040371Y-9930752D01*
X4049895Y-9921229D01*
X4049895Y-9940276D01*
X4154657Y-9940276D02*
X4192752Y-9940276D01*
X4211800Y-9930752D01*
X4221324Y-9921229D01*
X4240371Y-9892657D01*
X4249895Y-9854562D01*
X4249895Y-9778371D01*
X4240371Y-9759324D01*
X4230848Y-9749800D01*
X4211800Y-9740276D01*
X4173705Y-9740276D01*
X4154657Y-9749800D01*
X4145133Y-9759324D01*
X4135609Y-9778371D01*
X4135609Y-9825990D01*
X4145133Y-9845038D01*
X4154657Y-9854562D01*
X4173705Y-9864086D01*
X4211800Y-9864086D01*
X4230848Y-9854562D01*
X4240371Y-9845038D01*
X4249895Y-9825990D01*
X4373705Y-9740276D02*
X4392752Y-9740276D01*
X4411800Y-9749800D01*
X4421324Y-9759324D01*
X4430848Y-9778371D01*
X4440371Y-9816467D01*
X4440371Y-9864086D01*
X4430848Y-9902181D01*
X4421324Y-9921229D01*
X4411800Y-9930752D01*
X4392752Y-9940276D01*
X4373705Y-9940276D01*
X4354657Y-9930752D01*
X4345133Y-9921229D01*
X4335610Y-9902181D01*
X4326086Y-9864086D01*
X4326086Y-9816467D01*
X4335610Y-9778371D01*
X4345133Y-9759324D01*
X4354657Y-9749800D01*
X4373705Y-9740276D01*
X4564181Y-9740276D02*
X4583229Y-9740276D01*
X4602276Y-9749800D01*
X4611800Y-9759324D01*
X4621324Y-9778371D01*
X4630848Y-9816467D01*
X4630848Y-9864086D01*
X4621324Y-9902181D01*
X4611800Y-9921229D01*
X4602276Y-9930752D01*
X4583229Y-9940276D01*
X4564181Y-9940276D01*
X4545133Y-9930752D01*
X4535610Y-9921229D01*
X4526086Y-9902181D01*
X4516562Y-9864086D01*
X4516562Y-9816467D01*
X4526086Y-9778371D01*
X4535610Y-9759324D01*
X4545133Y-9749800D01*
X4564181Y-9740276D01*
X4716562Y-9940276D02*
X4716562Y-9806943D01*
X4716562Y-9825990D02*
X4726086Y-9816467D01*
X4745133Y-9806943D01*
X4773705Y-9806943D01*
X4792752Y-9816467D01*
X4802276Y-9835514D01*
X4802276Y-9940276D01*
X4802276Y-9835514D02*
X4811800Y-9816467D01*
X4830848Y-9806943D01*
X4859419Y-9806943D01*
X4878467Y-9816467D01*
X4887990Y-9835514D01*
X4887990Y-9940276D01*
X4983229Y-9940276D02*
X4983229Y-9806943D01*
X4983229Y-9825990D02*
X4992752Y-9816467D01*
X5011800Y-9806943D01*
X5040371Y-9806943D01*
X5059419Y-9816467D01*
X5068943Y-9835514D01*
X5068943Y-9940276D01*
X5068943Y-9835514D02*
X5078467Y-9816467D01*
X5097514Y-9806943D01*
X5126086Y-9806943D01*
X5145133Y-9816467D01*
X5154657Y-9835514D01*
X5154657Y-9940276D01*
X5545133Y-9730752D02*
X5373705Y-9987895D01*
X5802276Y-9740276D02*
X5821324Y-9740276D01*
X5840371Y-9749800D01*
X5849895Y-9759324D01*
X5859419Y-9778371D01*
X5868943Y-9816467D01*
X5868943Y-9864086D01*
X5859419Y-9902181D01*
X5849895Y-9921229D01*
X5840371Y-9930752D01*
X5821324Y-9940276D01*
X5802276Y-9940276D01*
X5783228Y-9930752D01*
X5773705Y-9921229D01*
X5764181Y-9902181D01*
X5754657Y-9864086D01*
X5754657Y-9816467D01*
X5764181Y-9778371D01*
X5773705Y-9759324D01*
X5783228Y-9749800D01*
X5802276Y-9740276D01*
X5954657Y-9921229D02*
X5964181Y-9930752D01*
X5954657Y-9940276D01*
X5945133Y-9930752D01*
X5954657Y-9921229D01*
X5954657Y-9940276D01*
X6087990Y-9740276D02*
X6107038Y-9740276D01*
X6126086Y-9749800D01*
X6135609Y-9759324D01*
X6145133Y-9778371D01*
X6154657Y-9816467D01*
X6154657Y-9864086D01*
X6145133Y-9902181D01*
X6135609Y-9921229D01*
X6126086Y-9930752D01*
X6107038Y-9940276D01*
X6087990Y-9940276D01*
X6068943Y-9930752D01*
X6059419Y-9921229D01*
X6049895Y-9902181D01*
X6040371Y-9864086D01*
X6040371Y-9816467D01*
X6049895Y-9778371D01*
X6059419Y-9759324D01*
X6068943Y-9749800D01*
X6087990Y-9740276D01*
X6221324Y-9740276D02*
X6345133Y-9740276D01*
X6278467Y-9816467D01*
X6307038Y-9816467D01*
X6326086Y-9825990D01*
X6335609Y-9835514D01*
X6345133Y-9854562D01*
X6345133Y-9902181D01*
X6335609Y-9921229D01*
X6326086Y-9930752D01*
X6307038Y-9940276D01*
X6249895Y-9940276D01*
X6230848Y-9930752D01*
X6221324Y-9921229D01*
X6526086Y-9740276D02*
X6430848Y-9740276D01*
X6421324Y-9835514D01*
X6430848Y-9825990D01*
X6449895Y-9816467D01*
X6497514Y-9816467D01*
X6516562Y-9825990D01*
X6526086Y-9835514D01*
X6535609Y-9854562D01*
X6535609Y-9902181D01*
X6526086Y-9921229D01*
X6516562Y-9930752D01*
X6497514Y-9940276D01*
X6449895Y-9940276D01*
X6430848Y-9930752D01*
X6421324Y-9921229D01*
X6707038Y-9806943D02*
X6707038Y-9940276D01*
X6659419Y-9730752D02*
X6611800Y-9873610D01*
X6735609Y-9873610D01*
X6802276Y-9740276D02*
X6802276Y-9778371D01*
X6878467Y-9740276D02*
X6878467Y-9778371D01*
X7173705Y-10016467D02*
X7164181Y-10006943D01*
X7145133Y-9978371D01*
X7135609Y-9959324D01*
X7126086Y-9930752D01*
X7116562Y-9883133D01*
X7116562Y-9845038D01*
X7126086Y-9797419D01*
X7135609Y-9768848D01*
X7145133Y-9749800D01*
X7164181Y-9721229D01*
X7173705Y-9711705D01*
X7354657Y-9940276D02*
X7240371Y-9940276D01*
X7297514Y-9940276D02*
X7297514Y-9740276D01*
X7278467Y-9768848D01*
X7259419Y-9787895D01*
X7240371Y-9797419D01*
X7430848Y-9759324D02*
X7440371Y-9749800D01*
X7459419Y-9740276D01*
X7507038Y-9740276D01*
X7526086Y-9749800D01*
X7535609Y-9759324D01*
X7545133Y-9778371D01*
X7545133Y-9797419D01*
X7535609Y-9825990D01*
X7421324Y-9940276D01*
X7545133Y-9940276D01*
X7783228Y-9940276D02*
X7783228Y-9740276D01*
X7868943Y-9940276D02*
X7868943Y-9835514D01*
X7859419Y-9816467D01*
X7840371Y-9806943D01*
X7811800Y-9806943D01*
X7792752Y-9816467D01*
X7783228Y-9825990D01*
X7992752Y-9940276D02*
X7973705Y-9930752D01*
X7964181Y-9921229D01*
X7954657Y-9902181D01*
X7954657Y-9845038D01*
X7964181Y-9825990D01*
X7973705Y-9816467D01*
X7992752Y-9806943D01*
X8021324Y-9806943D01*
X8040371Y-9816467D01*
X8049895Y-9825990D01*
X8059419Y-9845038D01*
X8059419Y-9902181D01*
X8049895Y-9921229D01*
X8040371Y-9930752D01*
X8021324Y-9940276D01*
X7992752Y-9940276D01*
X8173705Y-9940276D02*
X8154657Y-9930752D01*
X8145133Y-9911705D01*
X8145133Y-9740276D01*
X8326086Y-9930752D02*
X8307038Y-9940276D01*
X8268943Y-9940276D01*
X8249895Y-9930752D01*
X8240371Y-9911705D01*
X8240371Y-9835514D01*
X8249895Y-9816467D01*
X8268943Y-9806943D01*
X8307038Y-9806943D01*
X8326086Y-9816467D01*
X8335609Y-9835514D01*
X8335609Y-9854562D01*
X8240371Y-9873610D01*
X8411800Y-9930752D02*
X8430848Y-9940276D01*
X8468943Y-9940276D01*
X8487990Y-9930752D01*
X8497514Y-9911705D01*
X8497514Y-9902181D01*
X8487990Y-9883133D01*
X8468943Y-9873610D01*
X8440371Y-9873610D01*
X8421324Y-9864086D01*
X8411800Y-9845038D01*
X8411800Y-9835514D01*
X8421324Y-9816467D01*
X8440371Y-9806943D01*
X8468943Y-9806943D01*
X8487990Y-9816467D01*
X8564181Y-10016467D02*
X8573705Y-10006943D01*
X8592752Y-9978371D01*
X8602276Y-9959324D01*
X8611800Y-9930752D01*
X8621324Y-9883133D01*
X8621324Y-9845038D01*
X8611800Y-9797419D01*
X8602276Y-9768848D01*
X8592752Y-9749800D01*
X8573705Y-9721229D01*
X8564181Y-9711705D01*
D14*
X3556080Y-10068080D02*
X3556080Y-10159520D01*
X3510360Y-10113800D02*
X3601800Y-10113800D01*
D11*
X3897514Y-10004276D02*
X3916562Y-10004276D01*
X3935609Y-10013800D01*
X3945133Y-10023324D01*
X3954657Y-10042371D01*
X3964181Y-10080467D01*
X3964181Y-10128086D01*
X3954657Y-10166181D01*
X3945133Y-10185229D01*
X3935609Y-10194752D01*
X3916562Y-10204276D01*
X3897514Y-10204276D01*
X3878467Y-10194752D01*
X3868943Y-10185229D01*
X3859419Y-10166181D01*
X3849895Y-10128086D01*
X3849895Y-10080467D01*
X3859419Y-10042371D01*
X3868943Y-10023324D01*
X3878467Y-10013800D01*
X3897514Y-10004276D01*
X4049895Y-10185229D02*
X4059419Y-10194752D01*
X4049895Y-10204276D01*
X4040371Y-10194752D01*
X4049895Y-10185229D01*
X4049895Y-10204276D01*
X4154657Y-10204276D02*
X4192752Y-10204276D01*
X4211800Y-10194752D01*
X4221324Y-10185229D01*
X4240371Y-10156657D01*
X4249895Y-10118562D01*
X4249895Y-10042371D01*
X4240371Y-10023324D01*
X4230848Y-10013800D01*
X4211800Y-10004276D01*
X4173705Y-10004276D01*
X4154657Y-10013800D01*
X4145133Y-10023324D01*
X4135609Y-10042371D01*
X4135609Y-10089990D01*
X4145133Y-10109038D01*
X4154657Y-10118562D01*
X4173705Y-10128086D01*
X4211800Y-10128086D01*
X4230848Y-10118562D01*
X4240371Y-10109038D01*
X4249895Y-10089990D01*
X4440371Y-10204276D02*
X4326086Y-10204276D01*
X4383229Y-10204276D02*
X4383229Y-10004276D01*
X4364181Y-10032848D01*
X4345133Y-10051895D01*
X4326086Y-10061419D01*
X4611800Y-10070943D02*
X4611800Y-10204276D01*
X4564181Y-9994752D02*
X4516562Y-10137610D01*
X4640371Y-10137610D01*
X4716562Y-10204276D02*
X4716562Y-10070943D01*
X4716562Y-10089990D02*
X4726086Y-10080467D01*
X4745133Y-10070943D01*
X4773705Y-10070943D01*
X4792752Y-10080467D01*
X4802276Y-10099514D01*
X4802276Y-10204276D01*
X4802276Y-10099514D02*
X4811800Y-10080467D01*
X4830848Y-10070943D01*
X4859419Y-10070943D01*
X4878467Y-10080467D01*
X4887990Y-10099514D01*
X4887990Y-10204276D01*
X4983229Y-10204276D02*
X4983229Y-10070943D01*
X4983229Y-10089990D02*
X4992752Y-10080467D01*
X5011800Y-10070943D01*
X5040371Y-10070943D01*
X5059419Y-10080467D01*
X5068943Y-10099514D01*
X5068943Y-10204276D01*
X5068943Y-10099514D02*
X5078467Y-10080467D01*
X5097514Y-10070943D01*
X5126086Y-10070943D01*
X5145133Y-10080467D01*
X5154657Y-10099514D01*
X5154657Y-10204276D01*
X5545133Y-9994752D02*
X5373705Y-10251895D01*
X5802276Y-10004276D02*
X5821324Y-10004276D01*
X5840371Y-10013800D01*
X5849895Y-10023324D01*
X5859419Y-10042371D01*
X5868943Y-10080467D01*
X5868943Y-10128086D01*
X5859419Y-10166181D01*
X5849895Y-10185229D01*
X5840371Y-10194752D01*
X5821324Y-10204276D01*
X5802276Y-10204276D01*
X5783228Y-10194752D01*
X5773705Y-10185229D01*
X5764181Y-10166181D01*
X5754657Y-10128086D01*
X5754657Y-10080467D01*
X5764181Y-10042371D01*
X5773705Y-10023324D01*
X5783228Y-10013800D01*
X5802276Y-10004276D01*
X5954657Y-10185229D02*
X5964181Y-10194752D01*
X5954657Y-10204276D01*
X5945133Y-10194752D01*
X5954657Y-10185229D01*
X5954657Y-10204276D01*
X6087990Y-10004276D02*
X6107038Y-10004276D01*
X6126086Y-10013800D01*
X6135609Y-10023324D01*
X6145133Y-10042371D01*
X6154657Y-10080467D01*
X6154657Y-10128086D01*
X6145133Y-10166181D01*
X6135609Y-10185229D01*
X6126086Y-10194752D01*
X6107038Y-10204276D01*
X6087990Y-10204276D01*
X6068943Y-10194752D01*
X6059419Y-10185229D01*
X6049895Y-10166181D01*
X6040371Y-10128086D01*
X6040371Y-10080467D01*
X6049895Y-10042371D01*
X6059419Y-10023324D01*
X6068943Y-10013800D01*
X6087990Y-10004276D01*
X6221324Y-10004276D02*
X6345133Y-10004276D01*
X6278467Y-10080467D01*
X6307038Y-10080467D01*
X6326086Y-10089990D01*
X6335609Y-10099514D01*
X6345133Y-10118562D01*
X6345133Y-10166181D01*
X6335609Y-10185229D01*
X6326086Y-10194752D01*
X6307038Y-10204276D01*
X6249895Y-10204276D01*
X6230848Y-10194752D01*
X6221324Y-10185229D01*
X6516562Y-10004276D02*
X6478467Y-10004276D01*
X6459419Y-10013800D01*
X6449895Y-10023324D01*
X6430848Y-10051895D01*
X6421324Y-10089990D01*
X6421324Y-10166181D01*
X6430848Y-10185229D01*
X6440371Y-10194752D01*
X6459419Y-10204276D01*
X6497514Y-10204276D01*
X6516562Y-10194752D01*
X6526086Y-10185229D01*
X6535609Y-10166181D01*
X6535609Y-10118562D01*
X6526086Y-10099514D01*
X6516562Y-10089990D01*
X6497514Y-10080467D01*
X6459419Y-10080467D01*
X6440371Y-10089990D01*
X6430848Y-10099514D01*
X6421324Y-10118562D01*
X6659419Y-10004276D02*
X6678467Y-10004276D01*
X6697514Y-10013800D01*
X6707038Y-10023324D01*
X6716562Y-10042371D01*
X6726086Y-10080467D01*
X6726086Y-10128086D01*
X6716562Y-10166181D01*
X6707038Y-10185229D01*
X6697514Y-10194752D01*
X6678467Y-10204276D01*
X6659419Y-10204276D01*
X6640371Y-10194752D01*
X6630848Y-10185229D01*
X6621324Y-10166181D01*
X6611800Y-10128086D01*
X6611800Y-10080467D01*
X6621324Y-10042371D01*
X6630848Y-10023324D01*
X6640371Y-10013800D01*
X6659419Y-10004276D01*
X6802276Y-10004276D02*
X6802276Y-10042371D01*
X6878467Y-10004276D02*
X6878467Y-10042371D01*
X7173705Y-10280467D02*
X7164181Y-10270943D01*
X7145133Y-10242371D01*
X7135609Y-10223324D01*
X7126086Y-10194752D01*
X7116562Y-10147133D01*
X7116562Y-10109038D01*
X7126086Y-10061419D01*
X7135609Y-10032848D01*
X7145133Y-10013800D01*
X7164181Y-9985229D01*
X7173705Y-9975705D01*
X7354657Y-10204276D02*
X7240371Y-10204276D01*
X7297514Y-10204276D02*
X7297514Y-10004276D01*
X7278467Y-10032848D01*
X7259419Y-10051895D01*
X7240371Y-10061419D01*
X7545133Y-10204276D02*
X7430848Y-10204276D01*
X7487990Y-10204276D02*
X7487990Y-10004276D01*
X7468943Y-10032848D01*
X7449895Y-10051895D01*
X7430848Y-10061419D01*
X7783228Y-10204276D02*
X7783228Y-10004276D01*
X7868943Y-10204276D02*
X7868943Y-10099514D01*
X7859419Y-10080467D01*
X7840371Y-10070943D01*
X7811800Y-10070943D01*
X7792752Y-10080467D01*
X7783228Y-10089990D01*
X7992752Y-10204276D02*
X7973705Y-10194752D01*
X7964181Y-10185229D01*
X7954657Y-10166181D01*
X7954657Y-10109038D01*
X7964181Y-10089990D01*
X7973705Y-10080467D01*
X7992752Y-10070943D01*
X8021324Y-10070943D01*
X8040371Y-10080467D01*
X8049895Y-10089990D01*
X8059419Y-10109038D01*
X8059419Y-10166181D01*
X8049895Y-10185229D01*
X8040371Y-10194752D01*
X8021324Y-10204276D01*
X7992752Y-10204276D01*
X8173705Y-10204276D02*
X8154657Y-10194752D01*
X8145133Y-10175705D01*
X8145133Y-10004276D01*
X8326086Y-10194752D02*
X8307038Y-10204276D01*
X8268943Y-10204276D01*
X8249895Y-10194752D01*
X8240371Y-10175705D01*
X8240371Y-10099514D01*
X8249895Y-10080467D01*
X8268943Y-10070943D01*
X8307038Y-10070943D01*
X8326086Y-10080467D01*
X8335609Y-10099514D01*
X8335609Y-10118562D01*
X8240371Y-10137610D01*
X8411800Y-10194752D02*
X8430848Y-10204276D01*
X8468943Y-10204276D01*
X8487990Y-10194752D01*
X8497514Y-10175705D01*
X8497514Y-10166181D01*
X8487990Y-10147133D01*
X8468943Y-10137610D01*
X8440371Y-10137610D01*
X8421324Y-10128086D01*
X8411800Y-10109038D01*
X8411800Y-10099514D01*
X8421324Y-10080467D01*
X8440371Y-10070943D01*
X8468943Y-10070943D01*
X8487990Y-10080467D01*
X8564181Y-10280467D02*
X8573705Y-10270943D01*
X8592752Y-10242371D01*
X8602276Y-10223324D01*
X8611800Y-10194752D01*
X8621324Y-10147133D01*
X8621324Y-10109038D01*
X8611800Y-10061419D01*
X8602276Y-10032848D01*
X8592752Y-10013800D01*
X8573705Y-9985229D01*
X8564181Y-9975705D01*
D15*
X3587293Y-10412823D02*
X3587293Y-10342777D01*
X3517247Y-10342777D01*
X3517247Y-10412823D01*
X3587293Y-10412823D01*
D11*
X3897514Y-10268276D02*
X3916562Y-10268276D01*
X3935609Y-10277800D01*
X3945133Y-10287324D01*
X3954657Y-10306371D01*
X3964181Y-10344467D01*
X3964181Y-10392086D01*
X3954657Y-10430181D01*
X3945133Y-10449229D01*
X3935609Y-10458752D01*
X3916562Y-10468276D01*
X3897514Y-10468276D01*
X3878467Y-10458752D01*
X3868943Y-10449229D01*
X3859419Y-10430181D01*
X3849895Y-10392086D01*
X3849895Y-10344467D01*
X3859419Y-10306371D01*
X3868943Y-10287324D01*
X3878467Y-10277800D01*
X3897514Y-10268276D01*
X4049895Y-10449229D02*
X4059419Y-10458752D01*
X4049895Y-10468276D01*
X4040371Y-10458752D01*
X4049895Y-10449229D01*
X4049895Y-10468276D01*
X4154657Y-10468276D02*
X4192752Y-10468276D01*
X4211800Y-10458752D01*
X4221324Y-10449229D01*
X4240371Y-10420657D01*
X4249895Y-10382562D01*
X4249895Y-10306371D01*
X4240371Y-10287324D01*
X4230848Y-10277800D01*
X4211800Y-10268276D01*
X4173705Y-10268276D01*
X4154657Y-10277800D01*
X4145133Y-10287324D01*
X4135609Y-10306371D01*
X4135609Y-10353990D01*
X4145133Y-10373038D01*
X4154657Y-10382562D01*
X4173705Y-10392086D01*
X4211800Y-10392086D01*
X4230848Y-10382562D01*
X4240371Y-10373038D01*
X4249895Y-10353990D01*
X4345133Y-10468276D02*
X4383229Y-10468276D01*
X4402276Y-10458752D01*
X4411800Y-10449229D01*
X4430848Y-10420657D01*
X4440371Y-10382562D01*
X4440371Y-10306371D01*
X4430848Y-10287324D01*
X4421324Y-10277800D01*
X4402276Y-10268276D01*
X4364181Y-10268276D01*
X4345133Y-10277800D01*
X4335610Y-10287324D01*
X4326086Y-10306371D01*
X4326086Y-10353990D01*
X4335610Y-10373038D01*
X4345133Y-10382562D01*
X4364181Y-10392086D01*
X4402276Y-10392086D01*
X4421324Y-10382562D01*
X4430848Y-10373038D01*
X4440371Y-10353990D01*
X4630848Y-10468276D02*
X4516562Y-10468276D01*
X4573705Y-10468276D02*
X4573705Y-10268276D01*
X4554657Y-10296848D01*
X4535610Y-10315895D01*
X4516562Y-10325419D01*
X4716562Y-10468276D02*
X4716562Y-10334943D01*
X4716562Y-10353990D02*
X4726086Y-10344467D01*
X4745133Y-10334943D01*
X4773705Y-10334943D01*
X4792752Y-10344467D01*
X4802276Y-10363514D01*
X4802276Y-10468276D01*
X4802276Y-10363514D02*
X4811800Y-10344467D01*
X4830848Y-10334943D01*
X4859419Y-10334943D01*
X4878467Y-10344467D01*
X4887990Y-10363514D01*
X4887990Y-10468276D01*
X4983229Y-10468276D02*
X4983229Y-10334943D01*
X4983229Y-10353990D02*
X4992752Y-10344467D01*
X5011800Y-10334943D01*
X5040371Y-10334943D01*
X5059419Y-10344467D01*
X5068943Y-10363514D01*
X5068943Y-10468276D01*
X5068943Y-10363514D02*
X5078467Y-10344467D01*
X5097514Y-10334943D01*
X5126086Y-10334943D01*
X5145133Y-10344467D01*
X5154657Y-10363514D01*
X5154657Y-10468276D01*
X5545133Y-10258752D02*
X5373705Y-10515895D01*
X5802276Y-10268276D02*
X5821324Y-10268276D01*
X5840371Y-10277800D01*
X5849895Y-10287324D01*
X5859419Y-10306371D01*
X5868943Y-10344467D01*
X5868943Y-10392086D01*
X5859419Y-10430181D01*
X5849895Y-10449229D01*
X5840371Y-10458752D01*
X5821324Y-10468276D01*
X5802276Y-10468276D01*
X5783228Y-10458752D01*
X5773705Y-10449229D01*
X5764181Y-10430181D01*
X5754657Y-10392086D01*
X5754657Y-10344467D01*
X5764181Y-10306371D01*
X5773705Y-10287324D01*
X5783228Y-10277800D01*
X5802276Y-10268276D01*
X5954657Y-10449229D02*
X5964181Y-10458752D01*
X5954657Y-10468276D01*
X5945133Y-10458752D01*
X5954657Y-10449229D01*
X5954657Y-10468276D01*
X6087990Y-10268276D02*
X6107038Y-10268276D01*
X6126086Y-10277800D01*
X6135609Y-10287324D01*
X6145133Y-10306371D01*
X6154657Y-10344467D01*
X6154657Y-10392086D01*
X6145133Y-10430181D01*
X6135609Y-10449229D01*
X6126086Y-10458752D01*
X6107038Y-10468276D01*
X6087990Y-10468276D01*
X6068943Y-10458752D01*
X6059419Y-10449229D01*
X6049895Y-10430181D01*
X6040371Y-10392086D01*
X6040371Y-10344467D01*
X6049895Y-10306371D01*
X6059419Y-10287324D01*
X6068943Y-10277800D01*
X6087990Y-10268276D01*
X6221324Y-10268276D02*
X6345133Y-10268276D01*
X6278467Y-10344467D01*
X6307038Y-10344467D01*
X6326086Y-10353990D01*
X6335609Y-10363514D01*
X6345133Y-10382562D01*
X6345133Y-10430181D01*
X6335609Y-10449229D01*
X6326086Y-10458752D01*
X6307038Y-10468276D01*
X6249895Y-10468276D01*
X6230848Y-10458752D01*
X6221324Y-10449229D01*
X6440371Y-10468276D02*
X6478467Y-10468276D01*
X6497514Y-10458752D01*
X6507038Y-10449229D01*
X6526086Y-10420657D01*
X6535609Y-10382562D01*
X6535609Y-10306371D01*
X6526086Y-10287324D01*
X6516562Y-10277800D01*
X6497514Y-10268276D01*
X6459419Y-10268276D01*
X6440371Y-10277800D01*
X6430848Y-10287324D01*
X6421324Y-10306371D01*
X6421324Y-10353990D01*
X6430848Y-10373038D01*
X6440371Y-10382562D01*
X6459419Y-10392086D01*
X6497514Y-10392086D01*
X6516562Y-10382562D01*
X6526086Y-10373038D01*
X6535609Y-10353990D01*
X6659419Y-10268276D02*
X6678467Y-10268276D01*
X6697514Y-10277800D01*
X6707038Y-10287324D01*
X6716562Y-10306371D01*
X6726086Y-10344467D01*
X6726086Y-10392086D01*
X6716562Y-10430181D01*
X6707038Y-10449229D01*
X6697514Y-10458752D01*
X6678467Y-10468276D01*
X6659419Y-10468276D01*
X6640371Y-10458752D01*
X6630848Y-10449229D01*
X6621324Y-10430181D01*
X6611800Y-10392086D01*
X6611800Y-10344467D01*
X6621324Y-10306371D01*
X6630848Y-10287324D01*
X6640371Y-10277800D01*
X6659419Y-10268276D01*
X6802276Y-10268276D02*
X6802276Y-10306371D01*
X6878467Y-10268276D02*
X6878467Y-10306371D01*
X7173705Y-10544467D02*
X7164181Y-10534943D01*
X7145133Y-10506371D01*
X7135609Y-10487324D01*
X7126086Y-10458752D01*
X7116562Y-10411133D01*
X7116562Y-10373038D01*
X7126086Y-10325419D01*
X7135609Y-10296848D01*
X7145133Y-10277800D01*
X7164181Y-10249229D01*
X7173705Y-10239705D01*
X7354657Y-10468276D02*
X7240371Y-10468276D01*
X7297514Y-10468276D02*
X7297514Y-10268276D01*
X7278467Y-10296848D01*
X7259419Y-10315895D01*
X7240371Y-10325419D01*
X7468943Y-10353990D02*
X7449895Y-10344467D01*
X7440371Y-10334943D01*
X7430848Y-10315895D01*
X7430848Y-10306371D01*
X7440371Y-10287324D01*
X7449895Y-10277800D01*
X7468943Y-10268276D01*
X7507038Y-10268276D01*
X7526086Y-10277800D01*
X7535609Y-10287324D01*
X7545133Y-10306371D01*
X7545133Y-10315895D01*
X7535609Y-10334943D01*
X7526086Y-10344467D01*
X7507038Y-10353990D01*
X7468943Y-10353990D01*
X7449895Y-10363514D01*
X7440371Y-10373038D01*
X7430848Y-10392086D01*
X7430848Y-10430181D01*
X7440371Y-10449229D01*
X7449895Y-10458752D01*
X7468943Y-10468276D01*
X7507038Y-10468276D01*
X7526086Y-10458752D01*
X7535609Y-10449229D01*
X7545133Y-10430181D01*
X7545133Y-10392086D01*
X7535609Y-10373038D01*
X7526086Y-10363514D01*
X7507038Y-10353990D01*
X7783228Y-10468276D02*
X7783228Y-10268276D01*
X7868943Y-10468276D02*
X7868943Y-10363514D01*
X7859419Y-10344467D01*
X7840371Y-10334943D01*
X7811800Y-10334943D01*
X7792752Y-10344467D01*
X7783228Y-10353990D01*
X7992752Y-10468276D02*
X7973705Y-10458752D01*
X7964181Y-10449229D01*
X7954657Y-10430181D01*
X7954657Y-10373038D01*
X7964181Y-10353990D01*
X7973705Y-10344467D01*
X7992752Y-10334943D01*
X8021324Y-10334943D01*
X8040371Y-10344467D01*
X8049895Y-10353990D01*
X8059419Y-10373038D01*
X8059419Y-10430181D01*
X8049895Y-10449229D01*
X8040371Y-10458752D01*
X8021324Y-10468276D01*
X7992752Y-10468276D01*
X8173705Y-10468276D02*
X8154657Y-10458752D01*
X8145133Y-10439705D01*
X8145133Y-10268276D01*
X8326086Y-10458752D02*
X8307038Y-10468276D01*
X8268943Y-10468276D01*
X8249895Y-10458752D01*
X8240371Y-10439705D01*
X8240371Y-10363514D01*
X8249895Y-10344467D01*
X8268943Y-10334943D01*
X8307038Y-10334943D01*
X8326086Y-10344467D01*
X8335609Y-10363514D01*
X8335609Y-10382562D01*
X8240371Y-10401610D01*
X8411800Y-10458752D02*
X8430848Y-10468276D01*
X8468943Y-10468276D01*
X8487990Y-10458752D01*
X8497514Y-10439705D01*
X8497514Y-10430181D01*
X8487990Y-10411133D01*
X8468943Y-10401610D01*
X8440371Y-10401610D01*
X8421324Y-10392086D01*
X8411800Y-10373038D01*
X8411800Y-10363514D01*
X8421324Y-10344467D01*
X8440371Y-10334943D01*
X8468943Y-10334943D01*
X8487990Y-10344467D01*
X8564181Y-10544467D02*
X8573705Y-10534943D01*
X8592752Y-10506371D01*
X8602276Y-10487324D01*
X8611800Y-10458752D01*
X8621324Y-10411133D01*
X8621324Y-10373038D01*
X8611800Y-10325419D01*
X8602276Y-10296848D01*
X8592752Y-10277800D01*
X8573705Y-10249229D01*
X8564181Y-10239705D01*
D16*
X3546800Y-10696800D02*
X3601800Y-10641800D01*
X3546800Y-10586800D01*
X3491800Y-10641800D01*
X3546800Y-10696800D01*
D11*
X3964181Y-10732276D02*
X3849895Y-10732276D01*
X3907038Y-10732276D02*
X3907038Y-10532276D01*
X3887990Y-10560848D01*
X3868943Y-10579895D01*
X3849895Y-10589419D01*
X4049895Y-10713229D02*
X4059419Y-10722752D01*
X4049895Y-10732276D01*
X4040371Y-10722752D01*
X4049895Y-10713229D01*
X4049895Y-10732276D01*
X4249895Y-10732276D02*
X4135609Y-10732276D01*
X4192752Y-10732276D02*
X4192752Y-10532276D01*
X4173705Y-10560848D01*
X4154657Y-10579895D01*
X4135609Y-10589419D01*
X4373705Y-10532276D02*
X4392752Y-10532276D01*
X4411800Y-10541800D01*
X4421324Y-10551324D01*
X4430848Y-10570371D01*
X4440371Y-10608467D01*
X4440371Y-10656086D01*
X4430848Y-10694181D01*
X4421324Y-10713229D01*
X4411800Y-10722752D01*
X4392752Y-10732276D01*
X4373705Y-10732276D01*
X4354657Y-10722752D01*
X4345133Y-10713229D01*
X4335610Y-10694181D01*
X4326086Y-10656086D01*
X4326086Y-10608467D01*
X4335610Y-10570371D01*
X4345133Y-10551324D01*
X4354657Y-10541800D01*
X4373705Y-10532276D01*
X4564181Y-10532276D02*
X4583229Y-10532276D01*
X4602276Y-10541800D01*
X4611800Y-10551324D01*
X4621324Y-10570371D01*
X4630848Y-10608467D01*
X4630848Y-10656086D01*
X4621324Y-10694181D01*
X4611800Y-10713229D01*
X4602276Y-10722752D01*
X4583229Y-10732276D01*
X4564181Y-10732276D01*
X4545133Y-10722752D01*
X4535610Y-10713229D01*
X4526086Y-10694181D01*
X4516562Y-10656086D01*
X4516562Y-10608467D01*
X4526086Y-10570371D01*
X4535610Y-10551324D01*
X4545133Y-10541800D01*
X4564181Y-10532276D01*
X4716562Y-10732276D02*
X4716562Y-10598943D01*
X4716562Y-10617990D02*
X4726086Y-10608467D01*
X4745133Y-10598943D01*
X4773705Y-10598943D01*
X4792752Y-10608467D01*
X4802276Y-10627514D01*
X4802276Y-10732276D01*
X4802276Y-10627514D02*
X4811800Y-10608467D01*
X4830848Y-10598943D01*
X4859419Y-10598943D01*
X4878467Y-10608467D01*
X4887990Y-10627514D01*
X4887990Y-10732276D01*
X4983229Y-10732276D02*
X4983229Y-10598943D01*
X4983229Y-10617990D02*
X4992752Y-10608467D01*
X5011800Y-10598943D01*
X5040371Y-10598943D01*
X5059419Y-10608467D01*
X5068943Y-10627514D01*
X5068943Y-10732276D01*
X5068943Y-10627514D02*
X5078467Y-10608467D01*
X5097514Y-10598943D01*
X5126086Y-10598943D01*
X5145133Y-10608467D01*
X5154657Y-10627514D01*
X5154657Y-10732276D01*
X5545133Y-10522752D02*
X5373705Y-10779895D01*
X5802276Y-10532276D02*
X5821324Y-10532276D01*
X5840371Y-10541800D01*
X5849895Y-10551324D01*
X5859419Y-10570371D01*
X5868943Y-10608467D01*
X5868943Y-10656086D01*
X5859419Y-10694181D01*
X5849895Y-10713229D01*
X5840371Y-10722752D01*
X5821324Y-10732276D01*
X5802276Y-10732276D01*
X5783228Y-10722752D01*
X5773705Y-10713229D01*
X5764181Y-10694181D01*
X5754657Y-10656086D01*
X5754657Y-10608467D01*
X5764181Y-10570371D01*
X5773705Y-10551324D01*
X5783228Y-10541800D01*
X5802276Y-10532276D01*
X5954657Y-10713229D02*
X5964181Y-10722752D01*
X5954657Y-10732276D01*
X5945133Y-10722752D01*
X5954657Y-10713229D01*
X5954657Y-10732276D01*
X6087990Y-10532276D02*
X6107038Y-10532276D01*
X6126086Y-10541800D01*
X6135609Y-10551324D01*
X6145133Y-10570371D01*
X6154657Y-10608467D01*
X6154657Y-10656086D01*
X6145133Y-10694181D01*
X6135609Y-10713229D01*
X6126086Y-10722752D01*
X6107038Y-10732276D01*
X6087990Y-10732276D01*
X6068943Y-10722752D01*
X6059419Y-10713229D01*
X6049895Y-10694181D01*
X6040371Y-10656086D01*
X6040371Y-10608467D01*
X6049895Y-10570371D01*
X6059419Y-10551324D01*
X6068943Y-10541800D01*
X6087990Y-10532276D01*
X6326086Y-10598943D02*
X6326086Y-10732276D01*
X6278467Y-10522752D02*
X6230848Y-10665610D01*
X6354657Y-10665610D01*
X6411800Y-10532276D02*
X6535609Y-10532276D01*
X6468943Y-10608467D01*
X6497514Y-10608467D01*
X6516562Y-10617990D01*
X6526086Y-10627514D01*
X6535609Y-10646562D01*
X6535609Y-10694181D01*
X6526086Y-10713229D01*
X6516562Y-10722752D01*
X6497514Y-10732276D01*
X6440371Y-10732276D01*
X6421324Y-10722752D01*
X6411800Y-10713229D01*
X6602276Y-10532276D02*
X6726086Y-10532276D01*
X6659419Y-10608467D01*
X6687990Y-10608467D01*
X6707038Y-10617990D01*
X6716562Y-10627514D01*
X6726086Y-10646562D01*
X6726086Y-10694181D01*
X6716562Y-10713229D01*
X6707038Y-10722752D01*
X6687990Y-10732276D01*
X6630848Y-10732276D01*
X6611800Y-10722752D01*
X6602276Y-10713229D01*
X6802276Y-10532276D02*
X6802276Y-10570371D01*
X6878467Y-10532276D02*
X6878467Y-10570371D01*
X7173705Y-10808467D02*
X7164181Y-10798943D01*
X7145133Y-10770371D01*
X7135609Y-10751324D01*
X7126086Y-10722752D01*
X7116562Y-10675133D01*
X7116562Y-10637038D01*
X7126086Y-10589419D01*
X7135609Y-10560848D01*
X7145133Y-10541800D01*
X7164181Y-10513229D01*
X7173705Y-10503705D01*
X7354657Y-10732276D02*
X7240371Y-10732276D01*
X7297514Y-10732276D02*
X7297514Y-10532276D01*
X7278467Y-10560848D01*
X7259419Y-10579895D01*
X7240371Y-10589419D01*
X7430848Y-10551324D02*
X7440371Y-10541800D01*
X7459419Y-10532276D01*
X7507038Y-10532276D01*
X7526086Y-10541800D01*
X7535609Y-10551324D01*
X7545133Y-10570371D01*
X7545133Y-10589419D01*
X7535609Y-10617990D01*
X7421324Y-10732276D01*
X7545133Y-10732276D01*
X7783228Y-10732276D02*
X7783228Y-10532276D01*
X7868943Y-10732276D02*
X7868943Y-10627514D01*
X7859419Y-10608467D01*
X7840371Y-10598943D01*
X7811800Y-10598943D01*
X7792752Y-10608467D01*
X7783228Y-10617990D01*
X7992752Y-10732276D02*
X7973705Y-10722752D01*
X7964181Y-10713229D01*
X7954657Y-10694181D01*
X7954657Y-10637038D01*
X7964181Y-10617990D01*
X7973705Y-10608467D01*
X7992752Y-10598943D01*
X8021324Y-10598943D01*
X8040371Y-10608467D01*
X8049895Y-10617990D01*
X8059419Y-10637038D01*
X8059419Y-10694181D01*
X8049895Y-10713229D01*
X8040371Y-10722752D01*
X8021324Y-10732276D01*
X7992752Y-10732276D01*
X8173705Y-10732276D02*
X8154657Y-10722752D01*
X8145133Y-10703705D01*
X8145133Y-10532276D01*
X8326086Y-10722752D02*
X8307038Y-10732276D01*
X8268943Y-10732276D01*
X8249895Y-10722752D01*
X8240371Y-10703705D01*
X8240371Y-10627514D01*
X8249895Y-10608467D01*
X8268943Y-10598943D01*
X8307038Y-10598943D01*
X8326086Y-10608467D01*
X8335609Y-10627514D01*
X8335609Y-10646562D01*
X8240371Y-10665610D01*
X8411800Y-10722752D02*
X8430848Y-10732276D01*
X8468943Y-10732276D01*
X8487990Y-10722752D01*
X8497514Y-10703705D01*
X8497514Y-10694181D01*
X8487990Y-10675133D01*
X8468943Y-10665610D01*
X8440371Y-10665610D01*
X8421324Y-10656086D01*
X8411800Y-10637038D01*
X8411800Y-10627514D01*
X8421324Y-10608467D01*
X8440371Y-10598943D01*
X8468943Y-10598943D01*
X8487990Y-10608467D01*
X8564181Y-10808467D02*
X8573705Y-10798943D01*
X8592752Y-10770371D01*
X8602276Y-10751324D01*
X8611800Y-10722752D01*
X8621324Y-10675133D01*
X8621324Y-10637038D01*
X8611800Y-10589419D01*
X8602276Y-10560848D01*
X8592752Y-10541800D01*
X8573705Y-10513229D01*
X8564181Y-10503705D01*
D17*
X3461800Y-10835800D02*
X3601800Y-10975800D01*
X3601800Y-10835800D02*
X3461800Y-10975800D01*
X3601800Y-10905800D02*
G75*
G03*
X3601800Y-10905800I-70000J0D01*
G01*
D11*
X3964181Y-10996276D02*
X3849895Y-10996276D01*
X3907038Y-10996276D02*
X3907038Y-10796276D01*
X3887990Y-10824848D01*
X3868943Y-10843895D01*
X3849895Y-10853419D01*
X4049895Y-10977229D02*
X4059419Y-10986752D01*
X4049895Y-10996276D01*
X4040371Y-10986752D01*
X4049895Y-10977229D01*
X4049895Y-10996276D01*
X4230848Y-10862943D02*
X4230848Y-10996276D01*
X4183228Y-10786752D02*
X4135609Y-10929610D01*
X4259419Y-10929610D01*
X4373705Y-10796276D02*
X4392752Y-10796276D01*
X4411800Y-10805800D01*
X4421324Y-10815324D01*
X4430848Y-10834371D01*
X4440371Y-10872467D01*
X4440371Y-10920086D01*
X4430848Y-10958181D01*
X4421324Y-10977229D01*
X4411800Y-10986752D01*
X4392752Y-10996276D01*
X4373705Y-10996276D01*
X4354657Y-10986752D01*
X4345133Y-10977229D01*
X4335610Y-10958181D01*
X4326086Y-10920086D01*
X4326086Y-10872467D01*
X4335610Y-10834371D01*
X4345133Y-10815324D01*
X4354657Y-10805800D01*
X4373705Y-10796276D01*
X4564181Y-10796276D02*
X4583229Y-10796276D01*
X4602276Y-10805800D01*
X4611800Y-10815324D01*
X4621324Y-10834371D01*
X4630848Y-10872467D01*
X4630848Y-10920086D01*
X4621324Y-10958181D01*
X4611800Y-10977229D01*
X4602276Y-10986752D01*
X4583229Y-10996276D01*
X4564181Y-10996276D01*
X4545133Y-10986752D01*
X4535610Y-10977229D01*
X4526086Y-10958181D01*
X4516562Y-10920086D01*
X4516562Y-10872467D01*
X4526086Y-10834371D01*
X4535610Y-10815324D01*
X4545133Y-10805800D01*
X4564181Y-10796276D01*
X4716562Y-10996276D02*
X4716562Y-10862943D01*
X4716562Y-10881990D02*
X4726086Y-10872467D01*
X4745133Y-10862943D01*
X4773705Y-10862943D01*
X4792752Y-10872467D01*
X4802276Y-10891514D01*
X4802276Y-10996276D01*
X4802276Y-10891514D02*
X4811800Y-10872467D01*
X4830848Y-10862943D01*
X4859419Y-10862943D01*
X4878467Y-10872467D01*
X4887990Y-10891514D01*
X4887990Y-10996276D01*
X4983229Y-10996276D02*
X4983229Y-10862943D01*
X4983229Y-10881990D02*
X4992752Y-10872467D01*
X5011800Y-10862943D01*
X5040371Y-10862943D01*
X5059419Y-10872467D01*
X5068943Y-10891514D01*
X5068943Y-10996276D01*
X5068943Y-10891514D02*
X5078467Y-10872467D01*
X5097514Y-10862943D01*
X5126086Y-10862943D01*
X5145133Y-10872467D01*
X5154657Y-10891514D01*
X5154657Y-10996276D01*
X5545133Y-10786752D02*
X5373705Y-11043895D01*
X5802276Y-10796276D02*
X5821324Y-10796276D01*
X5840371Y-10805800D01*
X5849895Y-10815324D01*
X5859419Y-10834371D01*
X5868943Y-10872467D01*
X5868943Y-10920086D01*
X5859419Y-10958181D01*
X5849895Y-10977229D01*
X5840371Y-10986752D01*
X5821324Y-10996276D01*
X5802276Y-10996276D01*
X5783228Y-10986752D01*
X5773705Y-10977229D01*
X5764181Y-10958181D01*
X5754657Y-10920086D01*
X5754657Y-10872467D01*
X5764181Y-10834371D01*
X5773705Y-10815324D01*
X5783228Y-10805800D01*
X5802276Y-10796276D01*
X5954657Y-10977229D02*
X5964181Y-10986752D01*
X5954657Y-10996276D01*
X5945133Y-10986752D01*
X5954657Y-10977229D01*
X5954657Y-10996276D01*
X6087990Y-10796276D02*
X6107038Y-10796276D01*
X6126086Y-10805800D01*
X6135609Y-10815324D01*
X6145133Y-10834371D01*
X6154657Y-10872467D01*
X6154657Y-10920086D01*
X6145133Y-10958181D01*
X6135609Y-10977229D01*
X6126086Y-10986752D01*
X6107038Y-10996276D01*
X6087990Y-10996276D01*
X6068943Y-10986752D01*
X6059419Y-10977229D01*
X6049895Y-10958181D01*
X6040371Y-10920086D01*
X6040371Y-10872467D01*
X6049895Y-10834371D01*
X6059419Y-10815324D01*
X6068943Y-10805800D01*
X6087990Y-10796276D01*
X6335609Y-10796276D02*
X6240371Y-10796276D01*
X6230848Y-10891514D01*
X6240371Y-10881990D01*
X6259419Y-10872467D01*
X6307038Y-10872467D01*
X6326086Y-10881990D01*
X6335609Y-10891514D01*
X6345133Y-10910562D01*
X6345133Y-10958181D01*
X6335609Y-10977229D01*
X6326086Y-10986752D01*
X6307038Y-10996276D01*
X6259419Y-10996276D01*
X6240371Y-10986752D01*
X6230848Y-10977229D01*
X6526086Y-10796276D02*
X6430848Y-10796276D01*
X6421324Y-10891514D01*
X6430848Y-10881990D01*
X6449895Y-10872467D01*
X6497514Y-10872467D01*
X6516562Y-10881990D01*
X6526086Y-10891514D01*
X6535609Y-10910562D01*
X6535609Y-10958181D01*
X6526086Y-10977229D01*
X6516562Y-10986752D01*
X6497514Y-10996276D01*
X6449895Y-10996276D01*
X6430848Y-10986752D01*
X6421324Y-10977229D01*
X6726086Y-10996276D02*
X6611800Y-10996276D01*
X6668943Y-10996276D02*
X6668943Y-10796276D01*
X6649895Y-10824848D01*
X6630848Y-10843895D01*
X6611800Y-10853419D01*
X6802276Y-10796276D02*
X6802276Y-10834371D01*
X6878467Y-10796276D02*
X6878467Y-10834371D01*
X7173705Y-11072467D02*
X7164181Y-11062943D01*
X7145133Y-11034371D01*
X7135609Y-11015324D01*
X7126086Y-10986752D01*
X7116562Y-10939133D01*
X7116562Y-10901038D01*
X7126086Y-10853419D01*
X7135609Y-10824848D01*
X7145133Y-10805800D01*
X7164181Y-10777229D01*
X7173705Y-10767705D01*
X7240371Y-10815324D02*
X7249895Y-10805800D01*
X7268943Y-10796276D01*
X7316562Y-10796276D01*
X7335609Y-10805800D01*
X7345133Y-10815324D01*
X7354657Y-10834371D01*
X7354657Y-10853419D01*
X7345133Y-10881990D01*
X7230848Y-10996276D01*
X7354657Y-10996276D01*
X7592752Y-10996276D02*
X7592752Y-10796276D01*
X7678467Y-10996276D02*
X7678467Y-10891514D01*
X7668943Y-10872467D01*
X7649895Y-10862943D01*
X7621324Y-10862943D01*
X7602276Y-10872467D01*
X7592752Y-10881990D01*
X7802276Y-10996276D02*
X7783228Y-10986752D01*
X7773705Y-10977229D01*
X7764181Y-10958181D01*
X7764181Y-10901038D01*
X7773705Y-10881990D01*
X7783228Y-10872467D01*
X7802276Y-10862943D01*
X7830848Y-10862943D01*
X7849895Y-10872467D01*
X7859419Y-10881990D01*
X7868943Y-10901038D01*
X7868943Y-10958181D01*
X7859419Y-10977229D01*
X7849895Y-10986752D01*
X7830848Y-10996276D01*
X7802276Y-10996276D01*
X7983228Y-10996276D02*
X7964181Y-10986752D01*
X7954657Y-10967705D01*
X7954657Y-10796276D01*
X8135609Y-10986752D02*
X8116562Y-10996276D01*
X8078467Y-10996276D01*
X8059419Y-10986752D01*
X8049895Y-10967705D01*
X8049895Y-10891514D01*
X8059419Y-10872467D01*
X8078467Y-10862943D01*
X8116562Y-10862943D01*
X8135609Y-10872467D01*
X8145133Y-10891514D01*
X8145133Y-10910562D01*
X8049895Y-10929610D01*
X8221324Y-10986752D02*
X8240371Y-10996276D01*
X8278467Y-10996276D01*
X8297514Y-10986752D01*
X8307038Y-10967705D01*
X8307038Y-10958181D01*
X8297514Y-10939133D01*
X8278467Y-10929610D01*
X8249895Y-10929610D01*
X8230848Y-10920086D01*
X8221324Y-10901038D01*
X8221324Y-10891514D01*
X8230848Y-10872467D01*
X8249895Y-10862943D01*
X8278467Y-10862943D01*
X8297514Y-10872467D01*
X8373705Y-11072467D02*
X8383228Y-11062943D01*
X8402276Y-11034371D01*
X8411800Y-11015324D01*
X8421324Y-10986752D01*
X8430848Y-10939133D01*
X8430848Y-10901038D01*
X8421324Y-10853419D01*
X8411800Y-10824848D01*
X8402276Y-10805800D01*
X8383228Y-10777229D01*
X8373705Y-10767705D01*
D18*
X3451800Y-11094800D02*
X3601800Y-11244800D01*
X3601800Y-11094800D02*
X3451800Y-11244800D01*
X3526800Y-11094800D02*
X3526800Y-11244800D01*
X3451800Y-11169800D02*
X3601800Y-11169800D01*
D11*
X3964181Y-11260276D02*
X3849895Y-11260276D01*
X3907038Y-11260276D02*
X3907038Y-11060276D01*
X3887990Y-11088848D01*
X3868943Y-11107895D01*
X3849895Y-11117419D01*
X4049895Y-11241228D02*
X4059419Y-11250752D01*
X4049895Y-11260276D01*
X4040371Y-11250752D01*
X4049895Y-11241228D01*
X4049895Y-11260276D01*
X4240371Y-11060276D02*
X4145133Y-11060276D01*
X4135609Y-11155514D01*
X4145133Y-11145990D01*
X4164181Y-11136467D01*
X4211800Y-11136467D01*
X4230848Y-11145990D01*
X4240371Y-11155514D01*
X4249895Y-11174562D01*
X4249895Y-11222181D01*
X4240371Y-11241228D01*
X4230848Y-11250752D01*
X4211800Y-11260276D01*
X4164181Y-11260276D01*
X4145133Y-11250752D01*
X4135609Y-11241228D01*
X4373705Y-11060276D02*
X4392752Y-11060276D01*
X4411800Y-11069800D01*
X4421324Y-11079324D01*
X4430848Y-11098371D01*
X4440371Y-11136467D01*
X4440371Y-11184086D01*
X4430848Y-11222181D01*
X4421324Y-11241228D01*
X4411800Y-11250752D01*
X4392752Y-11260276D01*
X4373705Y-11260276D01*
X4354657Y-11250752D01*
X4345133Y-11241228D01*
X4335610Y-11222181D01*
X4326086Y-11184086D01*
X4326086Y-11136467D01*
X4335610Y-11098371D01*
X4345133Y-11079324D01*
X4354657Y-11069800D01*
X4373705Y-11060276D01*
X4564181Y-11060276D02*
X4583229Y-11060276D01*
X4602276Y-11069800D01*
X4611800Y-11079324D01*
X4621324Y-11098371D01*
X4630848Y-11136467D01*
X4630848Y-11184086D01*
X4621324Y-11222181D01*
X4611800Y-11241228D01*
X4602276Y-11250752D01*
X4583229Y-11260276D01*
X4564181Y-11260276D01*
X4545133Y-11250752D01*
X4535610Y-11241228D01*
X4526086Y-11222181D01*
X4516562Y-11184086D01*
X4516562Y-11136467D01*
X4526086Y-11098371D01*
X4535610Y-11079324D01*
X4545133Y-11069800D01*
X4564181Y-11060276D01*
X4716562Y-11260276D02*
X4716562Y-11126943D01*
X4716562Y-11145990D02*
X4726086Y-11136467D01*
X4745133Y-11126943D01*
X4773705Y-11126943D01*
X4792752Y-11136467D01*
X4802276Y-11155514D01*
X4802276Y-11260276D01*
X4802276Y-11155514D02*
X4811800Y-11136467D01*
X4830848Y-11126943D01*
X4859419Y-11126943D01*
X4878467Y-11136467D01*
X4887990Y-11155514D01*
X4887990Y-11260276D01*
X4983229Y-11260276D02*
X4983229Y-11126943D01*
X4983229Y-11145990D02*
X4992752Y-11136467D01*
X5011800Y-11126943D01*
X5040371Y-11126943D01*
X5059419Y-11136467D01*
X5068943Y-11155514D01*
X5068943Y-11260276D01*
X5068943Y-11155514D02*
X5078467Y-11136467D01*
X5097514Y-11126943D01*
X5126086Y-11126943D01*
X5145133Y-11136467D01*
X5154657Y-11155514D01*
X5154657Y-11260276D01*
X5545133Y-11050752D02*
X5373705Y-11307895D01*
X5802276Y-11060276D02*
X5821324Y-11060276D01*
X5840371Y-11069800D01*
X5849895Y-11079324D01*
X5859419Y-11098371D01*
X5868943Y-11136467D01*
X5868943Y-11184086D01*
X5859419Y-11222181D01*
X5849895Y-11241228D01*
X5840371Y-11250752D01*
X5821324Y-11260276D01*
X5802276Y-11260276D01*
X5783228Y-11250752D01*
X5773705Y-11241228D01*
X5764181Y-11222181D01*
X5754657Y-11184086D01*
X5754657Y-11136467D01*
X5764181Y-11098371D01*
X5773705Y-11079324D01*
X5783228Y-11069800D01*
X5802276Y-11060276D01*
X5954657Y-11241228D02*
X5964181Y-11250752D01*
X5954657Y-11260276D01*
X5945133Y-11250752D01*
X5954657Y-11241228D01*
X5954657Y-11260276D01*
X6087990Y-11060276D02*
X6107038Y-11060276D01*
X6126086Y-11069800D01*
X6135609Y-11079324D01*
X6145133Y-11098371D01*
X6154657Y-11136467D01*
X6154657Y-11184086D01*
X6145133Y-11222181D01*
X6135609Y-11241228D01*
X6126086Y-11250752D01*
X6107038Y-11260276D01*
X6087990Y-11260276D01*
X6068943Y-11250752D01*
X6059419Y-11241228D01*
X6049895Y-11222181D01*
X6040371Y-11184086D01*
X6040371Y-11136467D01*
X6049895Y-11098371D01*
X6059419Y-11079324D01*
X6068943Y-11069800D01*
X6087990Y-11060276D01*
X6335609Y-11060276D02*
X6240371Y-11060276D01*
X6230848Y-11155514D01*
X6240371Y-11145990D01*
X6259419Y-11136467D01*
X6307038Y-11136467D01*
X6326086Y-11145990D01*
X6335609Y-11155514D01*
X6345133Y-11174562D01*
X6345133Y-11222181D01*
X6335609Y-11241228D01*
X6326086Y-11250752D01*
X6307038Y-11260276D01*
X6259419Y-11260276D01*
X6240371Y-11250752D01*
X6230848Y-11241228D01*
X6440371Y-11260276D02*
X6478467Y-11260276D01*
X6497514Y-11250752D01*
X6507038Y-11241228D01*
X6526086Y-11212657D01*
X6535609Y-11174562D01*
X6535609Y-11098371D01*
X6526086Y-11079324D01*
X6516562Y-11069800D01*
X6497514Y-11060276D01*
X6459419Y-11060276D01*
X6440371Y-11069800D01*
X6430848Y-11079324D01*
X6421324Y-11098371D01*
X6421324Y-11145990D01*
X6430848Y-11165038D01*
X6440371Y-11174562D01*
X6459419Y-11184086D01*
X6497514Y-11184086D01*
X6516562Y-11174562D01*
X6526086Y-11165038D01*
X6535609Y-11145990D01*
X6726086Y-11260276D02*
X6611800Y-11260276D01*
X6668943Y-11260276D02*
X6668943Y-11060276D01*
X6649895Y-11088848D01*
X6630848Y-11107895D01*
X6611800Y-11117419D01*
X6802276Y-11060276D02*
X6802276Y-11098371D01*
X6878467Y-11060276D02*
X6878467Y-11098371D01*
X7173705Y-11336467D02*
X7164181Y-11326943D01*
X7145133Y-11298371D01*
X7135609Y-11279324D01*
X7126086Y-11250752D01*
X7116562Y-11203133D01*
X7116562Y-11165038D01*
X7126086Y-11117419D01*
X7135609Y-11088848D01*
X7145133Y-11069800D01*
X7164181Y-11041229D01*
X7173705Y-11031705D01*
X7354657Y-11260276D02*
X7240371Y-11260276D01*
X7297514Y-11260276D02*
X7297514Y-11060276D01*
X7278467Y-11088848D01*
X7259419Y-11107895D01*
X7240371Y-11117419D01*
X7468943Y-11145990D02*
X7449895Y-11136467D01*
X7440371Y-11126943D01*
X7430848Y-11107895D01*
X7430848Y-11098371D01*
X7440371Y-11079324D01*
X7449895Y-11069800D01*
X7468943Y-11060276D01*
X7507038Y-11060276D01*
X7526086Y-11069800D01*
X7535609Y-11079324D01*
X7545133Y-11098371D01*
X7545133Y-11107895D01*
X7535609Y-11126943D01*
X7526086Y-11136467D01*
X7507038Y-11145990D01*
X7468943Y-11145990D01*
X7449895Y-11155514D01*
X7440371Y-11165038D01*
X7430848Y-11184086D01*
X7430848Y-11222181D01*
X7440371Y-11241228D01*
X7449895Y-11250752D01*
X7468943Y-11260276D01*
X7507038Y-11260276D01*
X7526086Y-11250752D01*
X7535609Y-11241228D01*
X7545133Y-11222181D01*
X7545133Y-11184086D01*
X7535609Y-11165038D01*
X7526086Y-11155514D01*
X7507038Y-11145990D01*
X7783228Y-11260276D02*
X7783228Y-11060276D01*
X7868943Y-11260276D02*
X7868943Y-11155514D01*
X7859419Y-11136467D01*
X7840371Y-11126943D01*
X7811800Y-11126943D01*
X7792752Y-11136467D01*
X7783228Y-11145990D01*
X7992752Y-11260276D02*
X7973705Y-11250752D01*
X7964181Y-11241228D01*
X7954657Y-11222181D01*
X7954657Y-11165038D01*
X7964181Y-11145990D01*
X7973705Y-11136467D01*
X7992752Y-11126943D01*
X8021324Y-11126943D01*
X8040371Y-11136467D01*
X8049895Y-11145990D01*
X8059419Y-11165038D01*
X8059419Y-11222181D01*
X8049895Y-11241228D01*
X8040371Y-11250752D01*
X8021324Y-11260276D01*
X7992752Y-11260276D01*
X8173705Y-11260276D02*
X8154657Y-11250752D01*
X8145133Y-11231705D01*
X8145133Y-11060276D01*
X8326086Y-11250752D02*
X8307038Y-11260276D01*
X8268943Y-11260276D01*
X8249895Y-11250752D01*
X8240371Y-11231705D01*
X8240371Y-11155514D01*
X8249895Y-11136467D01*
X8268943Y-11126943D01*
X8307038Y-11126943D01*
X8326086Y-11136467D01*
X8335609Y-11155514D01*
X8335609Y-11174562D01*
X8240371Y-11193609D01*
X8411800Y-11250752D02*
X8430848Y-11260276D01*
X8468943Y-11260276D01*
X8487990Y-11250752D01*
X8497514Y-11231705D01*
X8497514Y-11222181D01*
X8487990Y-11203133D01*
X8468943Y-11193609D01*
X8440371Y-11193609D01*
X8421324Y-11184086D01*
X8411800Y-11165038D01*
X8411800Y-11155514D01*
X8421324Y-11136467D01*
X8440371Y-11126943D01*
X8468943Y-11126943D01*
X8487990Y-11136467D01*
X8564181Y-11336467D02*
X8573705Y-11326943D01*
X8592752Y-11298371D01*
X8602276Y-11279324D01*
X8611800Y-11250752D01*
X8621324Y-11203133D01*
X8621324Y-11165038D01*
X8611800Y-11117419D01*
X8602276Y-11088848D01*
X8592752Y-11069800D01*
X8573705Y-11041229D01*
X8564181Y-11031705D01*
M02*
