M48
; DRILL file {KiCad (6.0.7-1)-1} date Sunday, August 28, 2022 at 11:25:29 pm
; FORMAT={-:-/ absolute / metric / decimal}
; #@! TF.CreationDate,2022-08-28T23:25:29-04:00
; #@! TF.GenerationSoftware,Kicad,Pcbnew,(6.0.7-1)-1
; #@! TF.FileFunction,Plated,1,2,PTH
FMAT,2
METRIC
; #@! TA.AperFunction,Plated,PTH,ComponentDrill
T1C0.800
; #@! TA.AperFunction,Plated,PTH,ComponentDrill
T2C0.900
; #@! TA.AperFunction,Plated,PTH,ComponentDrill
T3C0.914
; #@! TA.AperFunction,Plated,PTH,ComponentDrill
T4C0.991
; #@! TA.AperFunction,Plated,PTH,ComponentDrill
T5C1.100
; #@! TA.AperFunction,Plated,PTH,ComponentDrill
T6C1.400
; #@! TA.AperFunction,Plated,PTH,ComponentDrill
T7C1.500
%
G90
G05
T1
X64.548Y-24.892
X66.548Y-24.892
X68.548Y-24.892
T2
X58.42Y-26.734
X58.42Y-29.274
X58.42Y-31.814
X58.42Y-34.354
X58.42Y-36.894
X58.42Y-39.434
X58.42Y-41.974
X58.42Y-44.514
X58.42Y-47.054
X58.42Y-49.594
X58.42Y-52.134
X58.42Y-54.674
T3
X43.18Y-26.734
X43.18Y-29.274
X43.18Y-31.814
X43.18Y-34.354
X43.18Y-36.894
X43.18Y-39.434
X43.18Y-41.974
X43.18Y-44.514
X43.18Y-47.054
X43.18Y-49.594
X43.18Y-52.134
T4
X72.39Y-30.48
X72.39Y-50.8
X72.39Y-71.12
X74.93Y-30.48
X74.93Y-50.8
X74.93Y-71.12
X92.71Y-30.48
X92.71Y-50.8
X92.71Y-71.12
X95.25Y-30.48
X95.25Y-50.8
X95.25Y-71.12
X113.03Y-30.48
X113.03Y-50.8
X113.03Y-71.12
X115.57Y-30.48
X115.57Y-50.8
X115.57Y-71.12
T5
X47.55Y-43.978
X47.55Y-48.478
X47.55Y-59.218
X47.55Y-63.718
X47.55Y-74.458
X47.55Y-78.958
X54.05Y-43.978
X54.05Y-48.478
X54.05Y-59.218
X54.05Y-63.718
X54.05Y-74.458
X54.05Y-78.958
T6
X62.398Y-24.892
X70.698Y-24.892
T7
X71.12Y-40.64
X71.12Y-60.96
X71.12Y-81.28
X77.47Y-38.1
X77.47Y-58.42
X77.47Y-78.74
X91.44Y-40.64
X91.44Y-60.96
X91.44Y-81.28
X97.79Y-38.1
X97.79Y-58.42
X97.79Y-78.74
X111.76Y-40.64
X111.76Y-60.96
X111.76Y-81.28
X118.11Y-38.1
X118.11Y-58.42
X118.11Y-78.74
T0
M30
