M48
; DRILL file {KiCad (6.0.7-1)-1} date Sunday, August 28, 2022 at 11:25:29 pm
; FORMAT={-:-/ absolute / metric / decimal}
; #@! TF.CreationDate,2022-08-28T23:25:29-04:00
; #@! TF.GenerationSoftware,Kicad,Pcbnew,(6.0.7-1)-1
; #@! TF.FileFunction,NonPlated,1,2,NPTH
FMAT,2
METRIC
; #@! TA.AperFunction,NonPlated,NPTH,ComponentDrill
T1C1.700
; #@! TA.AperFunction,NonPlated,NPTH,ComponentDrill
T2C2.700
; #@! TA.AperFunction,NonPlated,NPTH,ComponentDrill
T3C4.000
%
G90
G05
T1
X68.58Y-35.56
X68.58Y-55.88
X68.58Y-76.2
X78.74Y-35.56
X78.74Y-55.88
X78.74Y-76.2
X88.9Y-35.56
X88.9Y-55.88
X88.9Y-76.2
X99.06Y-35.56
X99.06Y-55.88
X99.06Y-76.2
X109.22Y-35.56
X109.22Y-55.88
X109.22Y-76.2
X119.38Y-35.56
X119.38Y-55.88
X119.38Y-76.2
T2
X39.116Y-25.4
X39.116Y-86.36
X124.46Y-25.4
X124.46Y-86.36
T3
X73.66Y-35.56
X73.66Y-55.88
X73.66Y-76.2
X93.98Y-35.56
X93.98Y-55.88
X93.98Y-76.2
X114.3Y-35.56
X114.3Y-55.88
X114.3Y-76.2
T0
M30
